G04 #@! TF.FileFunction,Copper,L1,Top,Mixed*
%FSLAX46Y46*%
G04 Gerber Fmt 4.6, Leading zero omitted, Abs format (unit mm)*
G04 Created by KiCad (PCBNEW (2015-10-22 BZR 6274, Git d63c017)-product) date 26.10.2015 23:38:13*
%MOMM*%
G01*
G04 APERTURE LIST*
%ADD10C,0.150000*%
%ADD11R,1.300000X1.300000*%
%ADD12C,1.300000*%
%ADD13R,1.400000X1.400000*%
%ADD14C,1.400000*%
%ADD15R,1.501140X1.501140*%
%ADD16C,1.501140*%
%ADD17R,1.727200X2.032000*%
%ADD18O,1.727200X2.032000*%
%ADD19O,3.500120X1.699260*%
%ADD20C,1.998980*%
%ADD21R,3.657600X2.032000*%
%ADD22R,1.016000X2.032000*%
%ADD23R,2.032000X2.032000*%
%ADD24O,2.032000X2.032000*%
%ADD25C,2.799080*%
%ADD26R,1.300000X1.500000*%
%ADD27R,1.500000X1.300000*%
%ADD28O,3.962400X1.981200*%
%ADD29C,0.889000*%
%ADD30C,0.500000*%
%ADD31C,0.260000*%
%ADD32C,1.000000*%
G04 APERTURE END LIST*
D10*
D11*
X181610000Y-140970000D03*
D12*
X184110000Y-140970000D03*
D13*
X172720000Y-133985000D03*
D14*
X167720000Y-133985000D03*
D15*
X177721260Y-138430000D03*
D16*
X177721260Y-140970000D03*
X177721260Y-143510000D03*
X167721280Y-143510000D03*
X167721280Y-140970000D03*
X167721280Y-138430000D03*
D17*
X205740000Y-121920000D03*
D18*
X203200000Y-121920000D03*
X200660000Y-121920000D03*
X198120000Y-121920000D03*
D19*
X170180000Y-126365000D03*
X170180000Y-128905000D03*
X170180000Y-123825000D03*
D20*
X180340000Y-132080000D03*
X180340000Y-121920000D03*
X189230000Y-132080000D03*
X189230000Y-121920000D03*
X176530000Y-121920000D03*
X176530000Y-132080000D03*
X185420000Y-121920000D03*
X185420000Y-132080000D03*
D21*
X198120000Y-128778000D03*
D22*
X198120000Y-135382000D03*
X200406000Y-135382000D03*
X195834000Y-135382000D03*
D23*
X187960000Y-139700000D03*
D24*
X187960000Y-142240000D03*
D25*
X180610000Y-149520000D03*
X180610000Y-154520000D03*
X207610000Y-164020000D03*
X207610000Y-154020000D03*
D26*
X207010000Y-130890000D03*
X207010000Y-128190000D03*
D27*
X192960000Y-142240000D03*
X195660000Y-142240000D03*
D28*
X170180000Y-165100000D03*
X170180000Y-160100000D03*
X170180000Y-150100000D03*
X170180000Y-155100000D03*
D29*
X205700600Y-137902900D03*
X205643100Y-128190000D03*
D30*
X177721300Y-140970000D02*
X181610000Y-140970000D01*
X187960000Y-139700000D02*
X189726300Y-139700000D01*
X192960000Y-142240000D02*
X192960000Y-140906800D01*
X195834000Y-135382000D02*
X195834000Y-137148300D01*
X190048600Y-140022300D02*
X189726300Y-139700000D01*
X192960000Y-140022300D02*
X190048600Y-140022300D01*
X192960000Y-140906800D02*
X192960000Y-140022300D01*
X192960000Y-140022300D02*
X195834000Y-137148300D01*
X201718600Y-124744900D02*
X200660000Y-123686300D01*
X201718600Y-137148300D02*
X201718600Y-124744900D01*
X207610000Y-143039700D02*
X201718600Y-137148300D01*
X207610000Y-154020000D02*
X207610000Y-143039700D01*
X201718600Y-137148300D02*
X195834000Y-137148300D01*
X200660000Y-121920000D02*
X200660000Y-123686300D01*
D31*
X198120000Y-135382000D02*
X198120000Y-133975700D01*
X207010000Y-130890000D02*
X205969700Y-130890000D01*
X197879900Y-133735600D02*
X195653200Y-133735600D01*
X198120000Y-133975700D02*
X197879900Y-133735600D01*
X184110000Y-140567200D02*
X184110000Y-140970000D01*
X190941600Y-133735600D02*
X184110000Y-140567200D01*
X195653200Y-133735600D02*
X190941600Y-133735600D01*
X205700600Y-130890000D02*
X205700600Y-137902900D01*
X204486000Y-129675400D02*
X205700600Y-130890000D01*
X204486000Y-121243000D02*
X204486000Y-129675400D01*
X203511400Y-120268400D02*
X204486000Y-121243000D01*
X197496900Y-120268400D02*
X203511400Y-120268400D01*
X195653200Y-122112100D02*
X197496900Y-120268400D01*
X195653200Y-133735600D02*
X195653200Y-122112100D01*
X205700600Y-130890000D02*
X205969700Y-130890000D01*
X195286000Y-143654300D02*
X195660000Y-143280300D01*
X185295100Y-143654300D02*
X195286000Y-143654300D01*
X183018500Y-141377700D02*
X185295100Y-143654300D01*
X183018500Y-140148600D02*
X183018500Y-141377700D01*
X181299900Y-138430000D02*
X183018500Y-140148600D01*
X177721300Y-138430000D02*
X181299900Y-138430000D01*
X195660000Y-142240000D02*
X195660000Y-143280300D01*
D32*
X168910000Y-143510000D02*
X167721300Y-143510000D01*
X180340000Y-132080000D02*
X168910000Y-143510000D01*
D30*
X200699200Y-133322500D02*
X200406000Y-133615700D01*
X200699200Y-126265500D02*
X200699200Y-133322500D01*
X198120000Y-123686300D02*
X200699200Y-126265500D01*
X198120000Y-121920000D02*
X198120000Y-123686300D01*
X200406000Y-135382000D02*
X200406000Y-133615700D01*
D32*
X165962000Y-163863500D02*
X167198500Y-165100000D01*
X165962000Y-127832600D02*
X165962000Y-163863500D01*
X167429600Y-126365000D02*
X165962000Y-127832600D01*
X170180000Y-165100000D02*
X167198500Y-165100000D01*
X170180000Y-126365000D02*
X167429600Y-126365000D01*
X170180000Y-160100000D02*
X173161500Y-160100000D01*
X173161500Y-155100000D02*
X173161500Y-160100000D01*
X175030000Y-155100000D02*
X173161500Y-155100000D01*
X180610000Y-149520000D02*
X175030000Y-155100000D01*
X173161500Y-155100000D02*
X170180000Y-155100000D01*
D31*
X207010000Y-128190000D02*
X205643100Y-128190000D01*
M02*
