M48
;DRILL file {KiCad (2015-10-22 BZR 6274, Git d63c017)-product} date 25.10.2015 13:10:08
;FORMAT={-:-/ absolute / inch / decimal}
FMAT,2
INCH,TZ
T1C0.025
T2C0.031
T3C0.032
T4C0.035
T5C0.039
T6C0.040
T7C0.052
T8C0.055
%
G90
G05
M72
T1
X7.6114Y-5.6585
X7.6564Y-6.2139
T2
X7.275Y-5.5
T3
X7.0782Y-5.75
X7.0782Y-5.85
X7.0782Y-5.95
X7.3734Y-5.5
X7.4719Y-5.75
X7.4719Y-5.85
X7.4719Y-5.95
T4
X6.6531Y-5.225
X6.85Y-5.225
T5
X6.75Y-4.825
X6.75Y-4.925
X6.75Y-5.025
X7.1Y-4.75
X7.1Y-5.15
X7.25Y-4.75
X7.25Y-5.15
X7.45Y-4.75
X7.45Y-5.15
X7.6Y-4.75
X7.6Y-5.15
T6
X7.65Y-5.475
X7.65Y-5.575
X7.97Y-4.79
X8.07Y-4.79
X8.17Y-4.79
X8.27Y-4.79
T7
X6.7Y-5.4094
X6.7Y-5.6063
X6.7Y-5.8031
X6.7Y-6.
T8
X6.55Y-6.15
X6.55Y-6.55
X8.35Y-5.75
X8.35Y-6.55
T0
M30
