G04 #@! TF.FileFunction,Legend,Bot*
%FSLAX46Y46*%
G04 Gerber Fmt 4.6, Leading zero omitted, Abs format (unit mm)*
G04 Created by KiCad (PCBNEW (2015-10-22 BZR 6274, Git d63c017)-product) date 26.10.2015 23:38:13*
%MOMM*%
G01*
G04 APERTURE LIST*
%ADD10C,0.150000*%
G04 APERTURE END LIST*
D10*
X175219360Y-136469120D02*
X175219360Y-137170160D01*
X175219360Y-137170160D02*
X175920400Y-137170160D01*
X169420540Y-136469120D02*
X169420540Y-145470880D01*
X169420540Y-145470880D02*
X176019460Y-145470880D01*
X176019460Y-145470880D02*
X176019460Y-136469120D01*
X176019460Y-136469120D02*
X169420540Y-136469120D01*
X191220000Y-138180000D02*
X208620000Y-138180000D01*
X208620000Y-138180000D02*
X208620000Y-125980000D01*
X208620000Y-125980000D02*
X191220000Y-125980000D01*
X191220000Y-125980000D02*
X191220000Y-138180000D01*
X204190000Y-163330000D02*
X204190000Y-162080000D01*
X204190000Y-162080000D02*
X200190000Y-162080000D01*
X200190000Y-162080000D02*
X200190000Y-160830000D01*
X200190000Y-160830000D02*
X204190000Y-160830000D01*
X204190000Y-160830000D02*
X204190000Y-159580000D01*
X204190000Y-159580000D02*
X200190000Y-159580000D01*
X200190000Y-159580000D02*
X200190000Y-158330000D01*
X200190000Y-158330000D02*
X204190000Y-158330000D01*
X204190000Y-158330000D02*
X204190000Y-157080000D01*
X204190000Y-157080000D02*
X200190000Y-157080000D01*
X200190000Y-157080000D02*
X200190000Y-155830000D01*
X200190000Y-155830000D02*
X204190000Y-155830000D01*
X204190000Y-155830000D02*
X204190000Y-152330000D01*
X197190000Y-163330000D02*
X204190000Y-163330000D01*
X198190000Y-156830000D02*
X198190000Y-163330000D01*
X186690000Y-163830000D02*
X204690000Y-163830000D01*
X204690000Y-163830000D02*
X204690000Y-151830000D01*
X204690000Y-151830000D02*
X186690000Y-151830000D01*
X186690000Y-163830000D02*
X186690000Y-151830000D01*
X175712381Y-139993810D02*
X174712381Y-139993810D01*
X175617143Y-141041429D02*
X175664762Y-140993810D01*
X175712381Y-140850953D01*
X175712381Y-140755715D01*
X175664762Y-140612857D01*
X175569524Y-140517619D01*
X175474286Y-140470000D01*
X175283810Y-140422381D01*
X175140952Y-140422381D01*
X174950476Y-140470000D01*
X174855238Y-140517619D01*
X174760000Y-140612857D01*
X174712381Y-140755715D01*
X174712381Y-140850953D01*
X174760000Y-140993810D01*
X174807619Y-141041429D01*
X175712381Y-141993810D02*
X175712381Y-141422381D01*
X175712381Y-141708095D02*
X174712381Y-141708095D01*
X174855238Y-141612857D01*
X174950476Y-141517619D01*
X174998095Y-141422381D01*
X178252381Y-136175715D02*
X178252381Y-135604286D01*
X178252381Y-135890000D02*
X177252381Y-135890000D01*
X177395238Y-135794762D01*
X177490476Y-135699524D01*
X177538095Y-135604286D01*
X200681905Y-133232381D02*
X200681905Y-134041905D01*
X200634286Y-134137143D01*
X200586667Y-134184762D01*
X200491429Y-134232381D01*
X200300952Y-134232381D01*
X200205714Y-134184762D01*
X200158095Y-134137143D01*
X200110476Y-134041905D01*
X200110476Y-133232381D01*
X199110476Y-134232381D02*
X199681905Y-134232381D01*
X199396191Y-134232381D02*
X199396191Y-133232381D01*
X199491429Y-133375238D01*
X199586667Y-133470476D01*
X199681905Y-133518095D01*
X204934286Y-129808571D02*
X204600952Y-129808571D01*
X204458095Y-130332381D02*
X204934286Y-130332381D01*
X204934286Y-129332381D01*
X204458095Y-129332381D01*
X204077143Y-130284762D02*
X203934286Y-130332381D01*
X203696190Y-130332381D01*
X203600952Y-130284762D01*
X203553333Y-130237143D01*
X203505714Y-130141905D01*
X203505714Y-130046667D01*
X203553333Y-129951429D01*
X203600952Y-129903810D01*
X203696190Y-129856190D01*
X203886667Y-129808571D01*
X203981905Y-129760952D01*
X204029524Y-129713333D01*
X204077143Y-129618095D01*
X204077143Y-129522857D01*
X204029524Y-129427619D01*
X203981905Y-129380000D01*
X203886667Y-129332381D01*
X203648571Y-129332381D01*
X203505714Y-129380000D01*
X203077143Y-130332381D02*
X203077143Y-129332381D01*
X202696190Y-129332381D01*
X202600952Y-129380000D01*
X202553333Y-129427619D01*
X202505714Y-129522857D01*
X202505714Y-129665714D01*
X202553333Y-129760952D01*
X202600952Y-129808571D01*
X202696190Y-129856190D01*
X203077143Y-129856190D01*
X201934286Y-129760952D02*
X202029524Y-129713333D01*
X202077143Y-129665714D01*
X202124762Y-129570476D01*
X202124762Y-129522857D01*
X202077143Y-129427619D01*
X202029524Y-129380000D01*
X201934286Y-129332381D01*
X201743809Y-129332381D01*
X201648571Y-129380000D01*
X201600952Y-129427619D01*
X201553333Y-129522857D01*
X201553333Y-129570476D01*
X201600952Y-129665714D01*
X201648571Y-129713333D01*
X201743809Y-129760952D01*
X201934286Y-129760952D01*
X202029524Y-129808571D01*
X202077143Y-129856190D01*
X202124762Y-129951429D01*
X202124762Y-130141905D01*
X202077143Y-130237143D01*
X202029524Y-130284762D01*
X201934286Y-130332381D01*
X201743809Y-130332381D01*
X201648571Y-130284762D01*
X201600952Y-130237143D01*
X201553333Y-130141905D01*
X201553333Y-129951429D01*
X201600952Y-129856190D01*
X201648571Y-129808571D01*
X201743809Y-129760952D01*
X201172381Y-129427619D02*
X201124762Y-129380000D01*
X201029524Y-129332381D01*
X200791428Y-129332381D01*
X200696190Y-129380000D01*
X200648571Y-129427619D01*
X200600952Y-129522857D01*
X200600952Y-129618095D01*
X200648571Y-129760952D01*
X201220000Y-130332381D01*
X200600952Y-130332381D01*
X199743809Y-129332381D02*
X199934286Y-129332381D01*
X200029524Y-129380000D01*
X200077143Y-129427619D01*
X200172381Y-129570476D01*
X200220000Y-129760952D01*
X200220000Y-130141905D01*
X200172381Y-130237143D01*
X200124762Y-130284762D01*
X200029524Y-130332381D01*
X199839047Y-130332381D01*
X199743809Y-130284762D01*
X199696190Y-130237143D01*
X199648571Y-130141905D01*
X199648571Y-129903810D01*
X199696190Y-129808571D01*
X199743809Y-129760952D01*
X199839047Y-129713333D01*
X200029524Y-129713333D01*
X200124762Y-129760952D01*
X200172381Y-129808571D01*
X200220000Y-129903810D01*
X198791428Y-129332381D02*
X198981905Y-129332381D01*
X199077143Y-129380000D01*
X199124762Y-129427619D01*
X199220000Y-129570476D01*
X199267619Y-129760952D01*
X199267619Y-130141905D01*
X199220000Y-130237143D01*
X199172381Y-130284762D01*
X199077143Y-130332381D01*
X198886666Y-130332381D01*
X198791428Y-130284762D01*
X198743809Y-130237143D01*
X198696190Y-130141905D01*
X198696190Y-129903810D01*
X198743809Y-129808571D01*
X198791428Y-129760952D01*
X198886666Y-129713333D01*
X199077143Y-129713333D01*
X199172381Y-129760952D01*
X199220000Y-129808571D01*
X199267619Y-129903810D01*
X198267619Y-129951429D02*
X197505714Y-129951429D01*
X197029524Y-129808571D02*
X196696190Y-129808571D01*
X196553333Y-130332381D02*
X197029524Y-130332381D01*
X197029524Y-129332381D01*
X196553333Y-129332381D01*
X196172381Y-130284762D02*
X196029524Y-130332381D01*
X195791428Y-130332381D01*
X195696190Y-130284762D01*
X195648571Y-130237143D01*
X195600952Y-130141905D01*
X195600952Y-130046667D01*
X195648571Y-129951429D01*
X195696190Y-129903810D01*
X195791428Y-129856190D01*
X195981905Y-129808571D01*
X196077143Y-129760952D01*
X196124762Y-129713333D01*
X196172381Y-129618095D01*
X196172381Y-129522857D01*
X196124762Y-129427619D01*
X196077143Y-129380000D01*
X195981905Y-129332381D01*
X195743809Y-129332381D01*
X195600952Y-129380000D01*
X195172381Y-130332381D02*
X195172381Y-129332381D01*
X194791428Y-129332381D01*
X194696190Y-129380000D01*
X194648571Y-129427619D01*
X194600952Y-129522857D01*
X194600952Y-129665714D01*
X194648571Y-129760952D01*
X194696190Y-129808571D01*
X194791428Y-129856190D01*
X195172381Y-129856190D01*
X194172381Y-129951429D02*
X193410476Y-129951429D01*
X192743810Y-129332381D02*
X192648571Y-129332381D01*
X192553333Y-129380000D01*
X192505714Y-129427619D01*
X192458095Y-129522857D01*
X192410476Y-129713333D01*
X192410476Y-129951429D01*
X192458095Y-130141905D01*
X192505714Y-130237143D01*
X192553333Y-130284762D01*
X192648571Y-130332381D01*
X192743810Y-130332381D01*
X192839048Y-130284762D01*
X192886667Y-130237143D01*
X192934286Y-130141905D01*
X192981905Y-129951429D01*
X192981905Y-129713333D01*
X192934286Y-129522857D01*
X192886667Y-129427619D01*
X192839048Y-129380000D01*
X192743810Y-129332381D01*
X192077143Y-129332381D02*
X191458095Y-129332381D01*
X191791429Y-129713333D01*
X191648571Y-129713333D01*
X191553333Y-129760952D01*
X191505714Y-129808571D01*
X191458095Y-129903810D01*
X191458095Y-130141905D01*
X191505714Y-130237143D01*
X191553333Y-130284762D01*
X191648571Y-130332381D01*
X191934286Y-130332381D01*
X192029524Y-130284762D01*
X192077143Y-130237143D01*
X196832857Y-164508571D02*
X196832857Y-165722857D01*
X196761429Y-165865714D01*
X196690000Y-165937143D01*
X196547143Y-166008571D01*
X196261429Y-166008571D01*
X196118571Y-165937143D01*
X196047143Y-165865714D01*
X195975714Y-165722857D01*
X195975714Y-164508571D01*
X195404285Y-164508571D02*
X194475714Y-164508571D01*
X194975714Y-165080000D01*
X194761428Y-165080000D01*
X194618571Y-165151429D01*
X194547142Y-165222857D01*
X194475714Y-165365714D01*
X194475714Y-165722857D01*
X194547142Y-165865714D01*
X194618571Y-165937143D01*
X194761428Y-166008571D01*
X195190000Y-166008571D01*
X195332857Y-165937143D01*
X195404285Y-165865714D01*
X201868570Y-155258571D02*
X201868570Y-153758571D01*
X201011427Y-155258571D01*
X201011427Y-153758571D01*
X199439998Y-155258571D02*
X199939998Y-154544286D01*
X200297141Y-155258571D02*
X200297141Y-153758571D01*
X199725713Y-153758571D01*
X199582855Y-153830000D01*
X199511427Y-153901429D01*
X199439998Y-154044286D01*
X199439998Y-154258571D01*
X199511427Y-154401429D01*
X199582855Y-154472857D01*
X199725713Y-154544286D01*
X200297141Y-154544286D01*
X198297141Y-154472857D02*
X198797141Y-154472857D01*
X198797141Y-155258571D02*
X198797141Y-153758571D01*
X198082855Y-153758571D01*
X197582856Y-153901429D02*
X197511427Y-153830000D01*
X197368570Y-153758571D01*
X197011427Y-153758571D01*
X196868570Y-153830000D01*
X196797141Y-153901429D01*
X196725713Y-154044286D01*
X196725713Y-154187143D01*
X196797141Y-154401429D01*
X197654284Y-155258571D01*
X196725713Y-155258571D01*
X195439999Y-154258571D02*
X195439999Y-155258571D01*
X195797142Y-153687143D02*
X196154285Y-154758571D01*
X195225713Y-154758571D01*
X193939999Y-155258571D02*
X194654285Y-155258571D01*
X194654285Y-153758571D01*
X193154285Y-153758571D02*
X193011428Y-153758571D01*
X192868571Y-153830000D01*
X192797142Y-153901429D01*
X192725713Y-154044286D01*
X192654285Y-154330000D01*
X192654285Y-154687143D01*
X192725713Y-154972857D01*
X192797142Y-155115714D01*
X192868571Y-155187143D01*
X193011428Y-155258571D01*
X193154285Y-155258571D01*
X193297142Y-155187143D01*
X193368571Y-155115714D01*
X193439999Y-154972857D01*
X193511428Y-154687143D01*
X193511428Y-154330000D01*
X193439999Y-154044286D01*
X193368571Y-153901429D01*
X193297142Y-153830000D01*
X193154285Y-153758571D01*
X191225714Y-155258571D02*
X192082857Y-155258571D01*
X191654285Y-155258571D02*
X191654285Y-153758571D01*
X191797142Y-153972857D01*
X191940000Y-154115714D01*
X192082857Y-154187143D01*
X190582857Y-155258571D02*
X190582857Y-153758571D01*
X190011429Y-153758571D01*
X189868571Y-153830000D01*
X189797143Y-153901429D01*
X189725714Y-154044286D01*
X189725714Y-154258571D01*
X189797143Y-154401429D01*
X189868571Y-154472857D01*
X190011429Y-154544286D01*
X190582857Y-154544286D01*
X189440000Y-155401429D02*
X188297143Y-155401429D01*
X188011429Y-155187143D02*
X187797143Y-155258571D01*
X187440000Y-155258571D01*
X187297143Y-155187143D01*
X187225714Y-155115714D01*
X187154286Y-154972857D01*
X187154286Y-154830000D01*
X187225714Y-154687143D01*
X187297143Y-154615714D01*
X187440000Y-154544286D01*
X187725714Y-154472857D01*
X187868572Y-154401429D01*
X187940000Y-154330000D01*
X188011429Y-154187143D01*
X188011429Y-154044286D01*
X187940000Y-153901429D01*
X187868572Y-153830000D01*
X187725714Y-153758571D01*
X187368572Y-153758571D01*
X187154286Y-153830000D01*
X186511429Y-155258571D02*
X186511429Y-153758571D01*
X186011429Y-154830000D01*
X185511429Y-153758571D01*
X185511429Y-155258571D01*
X184797143Y-155258571D02*
X184797143Y-153758571D01*
X184440000Y-153758571D01*
X184225715Y-153830000D01*
X184082857Y-153972857D01*
X184011429Y-154115714D01*
X183940000Y-154401429D01*
X183940000Y-154615714D01*
X184011429Y-154901429D01*
X184082857Y-155044286D01*
X184225715Y-155187143D01*
X184440000Y-155258571D01*
X184797143Y-155258571D01*
M02*
