G04 #@! TF.FileFunction,Legend,Top*
%FSLAX46Y46*%
G04 Gerber Fmt 4.6, Leading zero omitted, Abs format (unit mm)*
G04 Created by KiCad (PCBNEW (2015-10-22 BZR 6274, Git d63c017)-product) date 27.10.2015 3:27:05*
%MOMM*%
G01*
G04 APERTURE LIST*
%ADD10C,0.150000*%
G04 APERTURE END LIST*
D10*
X181360000Y-139720000D02*
X184360000Y-139720000D01*
X184360000Y-142220000D02*
X181360000Y-142220000D01*
X173220000Y-136235000D02*
X167220000Y-136235000D01*
X167220000Y-131735000D02*
X173220000Y-131735000D01*
X204470000Y-120650000D02*
X196850000Y-120650000D01*
X204470000Y-123190000D02*
X196850000Y-123190000D01*
X207290000Y-123470000D02*
X205740000Y-123470000D01*
X196850000Y-120650000D02*
X196850000Y-123190000D01*
X204470000Y-123190000D02*
X204470000Y-120650000D01*
X205740000Y-120370000D02*
X207290000Y-120370000D01*
X207290000Y-120370000D02*
X207290000Y-123470000D01*
X168275000Y-121031000D02*
X168275000Y-122936000D01*
X168275000Y-125476000D02*
X168275000Y-124714000D01*
X168275000Y-127889000D02*
X168275000Y-128016000D01*
X168275000Y-127889000D02*
X168275000Y-127254000D01*
X168275000Y-131699000D02*
X168275000Y-129921000D01*
X171958000Y-131699000D02*
X171958000Y-130048000D01*
X172085000Y-127381000D02*
X172085000Y-128016000D01*
X172085000Y-124841000D02*
X172085000Y-125476000D01*
X171958000Y-121031000D02*
X171958000Y-122682000D01*
X167132000Y-127889000D02*
X168275000Y-127889000D01*
X167132000Y-124841000D02*
X168275000Y-124841000D01*
X168275000Y-121031000D02*
X171958000Y-121031000D01*
X171958000Y-131699000D02*
X168275000Y-131699000D01*
X167132000Y-121031000D02*
X168275000Y-121031000D01*
X168275000Y-131699000D02*
X167132000Y-131699000D01*
X167132000Y-126365000D02*
X167132000Y-131699000D01*
X167132000Y-126365000D02*
X167132000Y-121031000D01*
X179070000Y-129540000D02*
X179070000Y-124460000D01*
X179070000Y-124460000D02*
X181610000Y-124460000D01*
X181610000Y-124460000D02*
X181610000Y-129540000D01*
X181610000Y-129540000D02*
X179070000Y-129540000D01*
X180340000Y-129540000D02*
X180340000Y-130810000D01*
X180340000Y-124460000D02*
X180340000Y-123190000D01*
X187960000Y-129540000D02*
X187960000Y-124460000D01*
X187960000Y-124460000D02*
X190500000Y-124460000D01*
X190500000Y-124460000D02*
X190500000Y-129540000D01*
X190500000Y-129540000D02*
X187960000Y-129540000D01*
X189230000Y-129540000D02*
X189230000Y-130810000D01*
X189230000Y-124460000D02*
X189230000Y-123190000D01*
X177800000Y-124460000D02*
X177800000Y-129540000D01*
X177800000Y-129540000D02*
X175260000Y-129540000D01*
X175260000Y-129540000D02*
X175260000Y-124460000D01*
X175260000Y-124460000D02*
X177800000Y-124460000D01*
X176530000Y-124460000D02*
X176530000Y-123190000D01*
X176530000Y-129540000D02*
X176530000Y-130810000D01*
X186690000Y-124460000D02*
X186690000Y-129540000D01*
X186690000Y-129540000D02*
X184150000Y-129540000D01*
X184150000Y-129540000D02*
X184150000Y-124460000D01*
X184150000Y-124460000D02*
X186690000Y-124460000D01*
X185420000Y-124460000D02*
X185420000Y-123190000D01*
X185420000Y-129540000D02*
X185420000Y-130810000D01*
X194564000Y-133604000D02*
X194564000Y-136652000D01*
X194564000Y-136652000D02*
X201676000Y-136652000D01*
X201676000Y-136652000D02*
X201676000Y-133604000D01*
X194564000Y-130556000D02*
X194564000Y-129794000D01*
X194564000Y-129794000D02*
X196088000Y-127508000D01*
X196088000Y-127508000D02*
X200152000Y-127508000D01*
X200152000Y-127508000D02*
X201676000Y-129794000D01*
X201676000Y-129794000D02*
X201676000Y-130556000D01*
X189230000Y-140970000D02*
X189230000Y-143510000D01*
X189510000Y-138150000D02*
X189510000Y-139700000D01*
X189230000Y-140970000D02*
X186690000Y-140970000D01*
X186410000Y-139700000D02*
X186410000Y-138150000D01*
X186410000Y-138150000D02*
X189510000Y-138150000D01*
X186690000Y-140970000D02*
X186690000Y-143510000D01*
X186690000Y-143510000D02*
X189230000Y-143510000D01*
X179070000Y-167020000D02*
X179070000Y-147020300D01*
X179070000Y-147020300D02*
X209038200Y-147020300D01*
X209038200Y-147020300D02*
X209038200Y-167020000D01*
X209038200Y-167019700D02*
X179070000Y-167019700D01*
X207885000Y-128940000D02*
X207885000Y-130140000D01*
X206135000Y-130140000D02*
X206135000Y-128940000D01*
X194910000Y-143115000D02*
X193710000Y-143115000D01*
X193710000Y-141365000D02*
X194910000Y-141365000D01*
X169926000Y-156350000D02*
X172720000Y-156350000D01*
X172720000Y-156350000D02*
X172720000Y-153810000D01*
X172720000Y-153810000D02*
X169926000Y-153810000D01*
X166751000Y-157162800D02*
X164211000Y-157162800D01*
X164211000Y-157162800D02*
X164211000Y-153098800D01*
X164211000Y-153098800D02*
X166751000Y-153098800D01*
X166751000Y-153098800D02*
X166751000Y-157162800D01*
X165735000Y-156756400D02*
X165100000Y-153708400D01*
X165862000Y-156629400D02*
X165227000Y-153581400D01*
X166094570Y-153662028D02*
G75*
G03X165127940Y-153609340I-509430J-452772D01*
G01*
X166014896Y-156604728D02*
G75*
G03X166062660Y-153616960I-1905496J1524728D01*
G01*
X165123156Y-153605589D02*
G75*
G03X165176200Y-156756400I1348444J-1553151D01*
G01*
X165126519Y-156705097D02*
G75*
G03X166052500Y-156563360I407821J431297D01*
G01*
X174498000Y-157112000D02*
X174498000Y-153048000D01*
X176403000Y-153048000D02*
X169926000Y-153048000D01*
X170688000Y-156731000D02*
X170688000Y-156350000D01*
X170688000Y-156731000D02*
X173863000Y-156731000D01*
X173863000Y-156731000D02*
X173863000Y-153429000D01*
X173863000Y-153429000D02*
X170688000Y-153429000D01*
X170688000Y-153429000D02*
X170688000Y-153810000D01*
X169545000Y-152590000D02*
X169545000Y-147510000D01*
X176403000Y-157112000D02*
X169926000Y-157112000D01*
X169926000Y-157112000D02*
X169926000Y-153048000D01*
X176403000Y-148145000D02*
X176403000Y-152082000D01*
X176403000Y-151932000D02*
X176403000Y-158028000D01*
X167132000Y-147510000D02*
X167132000Y-167680000D01*
X163957000Y-147360000D02*
X163957000Y-167680000D01*
X169545000Y-152440000D02*
X169545000Y-167616500D01*
X174180500Y-152145500D02*
X169926000Y-152145500D01*
X165126519Y-151675097D02*
G75*
G03X166052500Y-151533360I407821J431297D01*
G01*
X165123156Y-148575589D02*
G75*
G03X165176200Y-151726400I1348444J-1553151D01*
G01*
X166014896Y-151574728D02*
G75*
G03X166062660Y-148586960I-1905496J1524728D01*
G01*
X166094570Y-148632028D02*
G75*
G03X165127940Y-148579340I-509430J-452772D01*
G01*
X169926000Y-151751800D02*
X169926000Y-148449800D01*
X169926000Y-152132800D02*
X169926000Y-151751800D01*
X169926000Y-148068800D02*
X169926000Y-148449800D01*
X165862000Y-151599400D02*
X165227000Y-148551400D01*
X165735000Y-151726400D02*
X165100000Y-148678400D01*
X166751000Y-148068800D02*
X166751000Y-152132800D01*
X164211000Y-148068800D02*
X166751000Y-148068800D01*
X164211000Y-152132800D02*
X164211000Y-148068800D01*
X166751000Y-152132800D02*
X164211000Y-152132800D01*
X167005000Y-147510000D02*
X168529000Y-147510000D01*
X169545000Y-147510000D02*
X174244000Y-147510000D01*
X168529000Y-147510000D02*
X169545000Y-147510000D01*
X170688000Y-148449800D02*
X170688000Y-148830800D01*
X170688000Y-151751800D02*
X170688000Y-151370800D01*
X173863000Y-151751800D02*
X170688000Y-151751800D01*
X173863000Y-148449800D02*
X173863000Y-151751800D01*
X173863000Y-148449800D02*
X170688000Y-148449800D01*
X174498000Y-148068800D02*
X176403000Y-148068800D01*
X174498000Y-152132800D02*
X174498000Y-148068800D01*
X176403000Y-148068800D02*
X176403000Y-147510000D01*
X169926000Y-148068800D02*
X174498000Y-148068800D01*
X176403000Y-152132800D02*
X174498000Y-152132800D01*
X173990000Y-147002000D02*
X175641000Y-147002000D01*
X174244000Y-147510000D02*
X175387000Y-147510000D01*
X173990000Y-147002000D02*
X174244000Y-147510000D01*
X175387000Y-147510000D02*
X176403000Y-147510000D01*
X175641000Y-147002000D02*
X175387000Y-147510000D01*
X168783000Y-147002000D02*
X168529000Y-147510000D01*
X163957000Y-147002000D02*
X168783000Y-147002000D01*
X163957000Y-147510000D02*
X163957000Y-147002000D01*
X163957000Y-147510000D02*
X167005000Y-147510000D01*
X172720000Y-151370800D02*
X169926000Y-151370800D01*
X169926000Y-151370800D02*
X169926000Y-148830800D01*
X172720000Y-148830800D02*
X169926000Y-148830800D01*
X172720000Y-151370800D02*
X172720000Y-148830800D01*
X172720000Y-166384600D02*
X172720000Y-163844600D01*
X172720000Y-163844600D02*
X169926000Y-163844600D01*
X169926000Y-166384600D02*
X169926000Y-163844600D01*
X172720000Y-166384600D02*
X169926000Y-166384600D01*
X172720000Y-161380800D02*
X172720000Y-158840800D01*
X172720000Y-158840800D02*
X169926000Y-158840800D01*
X169926000Y-161380800D02*
X169926000Y-158840800D01*
X172720000Y-161380800D02*
X169926000Y-161380800D01*
X175387000Y-152145500D02*
X176403000Y-152145500D01*
X174244000Y-152145500D02*
X175387000Y-152145500D01*
X176403000Y-162142800D02*
X174498000Y-162142800D01*
X169926000Y-158078800D02*
X174498000Y-158078800D01*
X176403000Y-162142800D02*
X176403000Y-158078800D01*
X176403000Y-163082600D02*
X174498000Y-163082600D01*
X176403000Y-163082600D02*
X176403000Y-162142800D01*
X169926000Y-167146600D02*
X174498000Y-167146600D01*
X176403000Y-167680000D02*
X176403000Y-167146600D01*
X176403000Y-167146600D02*
X176403000Y-163082600D01*
X174498000Y-162142800D02*
X174498000Y-158078800D01*
X174498000Y-162142800D02*
X169926000Y-162142800D01*
X174498000Y-158078800D02*
X176403000Y-158078800D01*
X174498000Y-163082600D02*
X174498000Y-167146600D01*
X174498000Y-163082600D02*
X169926000Y-163082600D01*
X174498000Y-167146600D02*
X176403000Y-167146600D01*
X173863000Y-158459800D02*
X170688000Y-158459800D01*
X173863000Y-158459800D02*
X173863000Y-161761800D01*
X173863000Y-161761800D02*
X170688000Y-161761800D01*
X173863000Y-163463600D02*
X170688000Y-163463600D01*
X173863000Y-163463600D02*
X173863000Y-166765600D01*
X173863000Y-166765600D02*
X170688000Y-166765600D01*
X170688000Y-166765600D02*
X170688000Y-166384600D01*
X170688000Y-163463600D02*
X170688000Y-163844600D01*
X170688000Y-161761800D02*
X170688000Y-161380800D01*
X170688000Y-158459800D02*
X170688000Y-158840800D01*
X176403000Y-167680000D02*
X169545000Y-167680000D01*
X169545000Y-167680000D02*
X167005000Y-167680000D01*
X167005000Y-167680000D02*
X163957000Y-167680000D01*
X166751000Y-162142800D02*
X164211000Y-162142800D01*
X164211000Y-162142800D02*
X164211000Y-158078800D01*
X164211000Y-158078800D02*
X166751000Y-158078800D01*
X166751000Y-158078800D02*
X166751000Y-162142800D01*
X166751000Y-163082600D02*
X164211000Y-163082600D01*
X166751000Y-163082600D02*
X166751000Y-167146600D01*
X166751000Y-167146600D02*
X164211000Y-167146600D01*
X164211000Y-163082600D02*
X164211000Y-167146600D01*
X165735000Y-161736400D02*
X165100000Y-158688400D01*
X165862000Y-161609400D02*
X165227000Y-158561400D01*
X165735000Y-166740200D02*
X165100000Y-163689660D01*
X165862000Y-166613200D02*
X165227000Y-163565200D01*
X169926000Y-167146600D02*
X169926000Y-166765600D01*
X169926000Y-163082600D02*
X169926000Y-163463600D01*
X169926000Y-163463600D02*
X169926000Y-166765600D01*
X169926000Y-158078800D02*
X169926000Y-158459800D01*
X169926000Y-162142800D02*
X169926000Y-161761800D01*
X169926000Y-161761800D02*
X169926000Y-158459800D01*
X166094570Y-158642028D02*
G75*
G03X165127940Y-158589340I-509430J-452772D01*
G01*
X166014896Y-161584728D02*
G75*
G03X166062660Y-158596960I-1905496J1524728D01*
G01*
X165123156Y-158585589D02*
G75*
G03X165176200Y-161736400I1348444J-1553151D01*
G01*
X165126519Y-161685097D02*
G75*
G03X166052500Y-161543360I407821J431297D01*
G01*
X166097110Y-163645851D02*
G75*
G03X165127940Y-163590600I-511970J-452749D01*
G01*
X166014896Y-166585988D02*
G75*
G03X166062660Y-163598220I-1905496J1524728D01*
G01*
X165118153Y-163583427D02*
G75*
G03X165176200Y-166740200I1353447J-1554033D01*
G01*
X165128981Y-166689520D02*
G75*
G03X166052500Y-166544620I405359J431920D01*
G01*
X201330000Y-141365000D02*
X202530000Y-141365000D01*
X202530000Y-143115000D02*
X201330000Y-143115000D01*
X182693334Y-138827143D02*
X182645715Y-138874762D01*
X182502858Y-138922381D01*
X182407620Y-138922381D01*
X182264762Y-138874762D01*
X182169524Y-138779524D01*
X182121905Y-138684286D01*
X182074286Y-138493810D01*
X182074286Y-138350952D01*
X182121905Y-138160476D01*
X182169524Y-138065238D01*
X182264762Y-137970000D01*
X182407620Y-137922381D01*
X182502858Y-137922381D01*
X182645715Y-137970000D01*
X182693334Y-138017619D01*
X183645715Y-138922381D02*
X183074286Y-138922381D01*
X183360000Y-138922381D02*
X183360000Y-137922381D01*
X183264762Y-138065238D01*
X183169524Y-138160476D01*
X183074286Y-138208095D01*
X170053334Y-137842143D02*
X170005715Y-137889762D01*
X169862858Y-137937381D01*
X169767620Y-137937381D01*
X169624762Y-137889762D01*
X169529524Y-137794524D01*
X169481905Y-137699286D01*
X169434286Y-137508810D01*
X169434286Y-137365952D01*
X169481905Y-137175476D01*
X169529524Y-137080238D01*
X169624762Y-136985000D01*
X169767620Y-136937381D01*
X169862858Y-136937381D01*
X170005715Y-136985000D01*
X170053334Y-137032619D01*
X170434286Y-137032619D02*
X170481905Y-136985000D01*
X170577143Y-136937381D01*
X170815239Y-136937381D01*
X170910477Y-136985000D01*
X170958096Y-137032619D01*
X171005715Y-137127857D01*
X171005715Y-137223095D01*
X170958096Y-137365952D01*
X170386667Y-137937381D01*
X171005715Y-137937381D01*
X195524381Y-122912095D02*
X194524381Y-122912095D01*
X194524381Y-122531142D01*
X194572000Y-122435904D01*
X194619619Y-122388285D01*
X194714857Y-122340666D01*
X194857714Y-122340666D01*
X194952952Y-122388285D01*
X195000571Y-122435904D01*
X195048190Y-122531142D01*
X195048190Y-122912095D01*
X195524381Y-121388285D02*
X195524381Y-121959714D01*
X195524381Y-121674000D02*
X194524381Y-121674000D01*
X194667238Y-121769238D01*
X194762476Y-121864476D01*
X194810095Y-121959714D01*
X164552381Y-127126905D02*
X165361905Y-127126905D01*
X165457143Y-127079286D01*
X165504762Y-127031667D01*
X165552381Y-126936429D01*
X165552381Y-126745952D01*
X165504762Y-126650714D01*
X165457143Y-126603095D01*
X165361905Y-126555476D01*
X164552381Y-126555476D01*
X164885714Y-125650714D02*
X165552381Y-125650714D01*
X164504762Y-125888810D02*
X165219048Y-126126905D01*
X165219048Y-125507857D01*
X177292261Y-126917746D02*
X176816070Y-127251080D01*
X177292261Y-127489175D02*
X176292261Y-127489175D01*
X176292261Y-127108222D01*
X176339880Y-127012984D01*
X176387499Y-126965365D01*
X176482737Y-126917746D01*
X176625594Y-126917746D01*
X176720832Y-126965365D01*
X176768451Y-127012984D01*
X176816070Y-127108222D01*
X176816070Y-127489175D01*
X177292261Y-125965365D02*
X177292261Y-126536794D01*
X177292261Y-126251080D02*
X176292261Y-126251080D01*
X176435118Y-126346318D01*
X176530356Y-126441556D01*
X176577975Y-126536794D01*
X186182261Y-126917746D02*
X185706070Y-127251080D01*
X186182261Y-127489175D02*
X185182261Y-127489175D01*
X185182261Y-127108222D01*
X185229880Y-127012984D01*
X185277499Y-126965365D01*
X185372737Y-126917746D01*
X185515594Y-126917746D01*
X185610832Y-126965365D01*
X185658451Y-127012984D01*
X185706070Y-127108222D01*
X185706070Y-127489175D01*
X185277499Y-126536794D02*
X185229880Y-126489175D01*
X185182261Y-126393937D01*
X185182261Y-126155841D01*
X185229880Y-126060603D01*
X185277499Y-126012984D01*
X185372737Y-125965365D01*
X185467975Y-125965365D01*
X185610832Y-126012984D01*
X186182261Y-126584413D01*
X186182261Y-125965365D01*
X180482501Y-127415586D02*
X180006310Y-127748920D01*
X180482501Y-127987015D02*
X179482501Y-127987015D01*
X179482501Y-127606062D01*
X179530120Y-127510824D01*
X179577739Y-127463205D01*
X179672977Y-127415586D01*
X179815834Y-127415586D01*
X179911072Y-127463205D01*
X179958691Y-127510824D01*
X180006310Y-127606062D01*
X180006310Y-127987015D01*
X179482501Y-127082253D02*
X179482501Y-126463205D01*
X179863453Y-126796539D01*
X179863453Y-126653681D01*
X179911072Y-126558443D01*
X179958691Y-126510824D01*
X180053930Y-126463205D01*
X180292025Y-126463205D01*
X180387263Y-126510824D01*
X180434882Y-126558443D01*
X180482501Y-126653681D01*
X180482501Y-126939396D01*
X180434882Y-127034634D01*
X180387263Y-127082253D01*
X189372501Y-127415586D02*
X188896310Y-127748920D01*
X189372501Y-127987015D02*
X188372501Y-127987015D01*
X188372501Y-127606062D01*
X188420120Y-127510824D01*
X188467739Y-127463205D01*
X188562977Y-127415586D01*
X188705834Y-127415586D01*
X188801072Y-127463205D01*
X188848691Y-127510824D01*
X188896310Y-127606062D01*
X188896310Y-127987015D01*
X188705834Y-126558443D02*
X189372501Y-126558443D01*
X188324882Y-126796539D02*
X189039168Y-127034634D01*
X189039168Y-126415586D01*
X197358095Y-130770381D02*
X197358095Y-131579905D01*
X197405714Y-131675143D01*
X197453333Y-131722762D01*
X197548571Y-131770381D01*
X197739048Y-131770381D01*
X197834286Y-131722762D01*
X197881905Y-131675143D01*
X197929524Y-131579905D01*
X197929524Y-130770381D01*
X198358095Y-130865619D02*
X198405714Y-130818000D01*
X198500952Y-130770381D01*
X198739048Y-130770381D01*
X198834286Y-130818000D01*
X198881905Y-130865619D01*
X198929524Y-130960857D01*
X198929524Y-131056095D01*
X198881905Y-131198952D01*
X198310476Y-131770381D01*
X198929524Y-131770381D01*
X187126667Y-134052381D02*
X187126667Y-134766667D01*
X187079047Y-134909524D01*
X186983809Y-135004762D01*
X186840952Y-135052381D01*
X186745714Y-135052381D01*
X187602857Y-135052381D02*
X187602857Y-134052381D01*
X187983810Y-134052381D01*
X188079048Y-134100000D01*
X188126667Y-134147619D01*
X188174286Y-134242857D01*
X188174286Y-134385714D01*
X188126667Y-134480952D01*
X188079048Y-134528571D01*
X187983810Y-134576190D01*
X187602857Y-134576190D01*
X189126667Y-135052381D02*
X188555238Y-135052381D01*
X188840952Y-135052381D02*
X188840952Y-134052381D01*
X188745714Y-134195238D01*
X188650476Y-134290476D01*
X188555238Y-134338095D01*
X193063905Y-156662381D02*
X193063905Y-155662381D01*
X193444858Y-155662381D01*
X193540096Y-155710000D01*
X193587715Y-155757619D01*
X193635334Y-155852857D01*
X193635334Y-155995714D01*
X193587715Y-156090952D01*
X193540096Y-156138571D01*
X193444858Y-156186190D01*
X193063905Y-156186190D01*
X193968667Y-155662381D02*
X194587715Y-155662381D01*
X194254381Y-156043333D01*
X194397239Y-156043333D01*
X194492477Y-156090952D01*
X194540096Y-156138571D01*
X194587715Y-156233810D01*
X194587715Y-156471905D01*
X194540096Y-156567143D01*
X194492477Y-156614762D01*
X194397239Y-156662381D01*
X194111524Y-156662381D01*
X194016286Y-156614762D01*
X193968667Y-156567143D01*
X179526667Y-152186667D02*
X180002858Y-152186667D01*
X179431429Y-152472381D02*
X179764762Y-151472381D01*
X180098096Y-152472381D01*
X181002858Y-152377143D02*
X180955239Y-152424762D01*
X180812382Y-152472381D01*
X180717144Y-152472381D01*
X180574286Y-152424762D01*
X180479048Y-152329524D01*
X180431429Y-152234286D01*
X180383810Y-152043810D01*
X180383810Y-151900952D01*
X180431429Y-151710476D01*
X180479048Y-151615238D01*
X180574286Y-151520000D01*
X180717144Y-151472381D01*
X180812382Y-151472381D01*
X180955239Y-151520000D01*
X181002858Y-151567619D01*
X182193334Y-151472381D02*
X182193334Y-152281905D01*
X182240953Y-152377143D01*
X182288572Y-152424762D01*
X182383810Y-152472381D01*
X182574287Y-152472381D01*
X182669525Y-152424762D01*
X182717144Y-152377143D01*
X182764763Y-152281905D01*
X182764763Y-151472381D01*
X183240953Y-152472381D02*
X183240953Y-151805714D01*
X183240953Y-151472381D02*
X183193334Y-151520000D01*
X183240953Y-151567619D01*
X183288572Y-151520000D01*
X183240953Y-151472381D01*
X183240953Y-151567619D01*
X183717143Y-151805714D02*
X183717143Y-152472381D01*
X183717143Y-151900952D02*
X183764762Y-151853333D01*
X183860000Y-151805714D01*
X184002858Y-151805714D01*
X184098096Y-151853333D01*
X184145715Y-151948571D01*
X184145715Y-152472381D01*
X207229048Y-151341429D02*
X207990953Y-151341429D01*
X207229048Y-161341429D02*
X207990953Y-161341429D01*
X207610001Y-161722381D02*
X207610001Y-160960476D01*
X205362381Y-129706666D02*
X204886190Y-130040000D01*
X205362381Y-130278095D02*
X204362381Y-130278095D01*
X204362381Y-129897142D01*
X204410000Y-129801904D01*
X204457619Y-129754285D01*
X204552857Y-129706666D01*
X204695714Y-129706666D01*
X204790952Y-129754285D01*
X204838571Y-129801904D01*
X204886190Y-129897142D01*
X204886190Y-130278095D01*
X204362381Y-128801904D02*
X204362381Y-129278095D01*
X204838571Y-129325714D01*
X204790952Y-129278095D01*
X204743333Y-129182857D01*
X204743333Y-128944761D01*
X204790952Y-128849523D01*
X204838571Y-128801904D01*
X204933810Y-128754285D01*
X205171905Y-128754285D01*
X205267143Y-128801904D01*
X205314762Y-128849523D01*
X205362381Y-128944761D01*
X205362381Y-129182857D01*
X205314762Y-129278095D01*
X205267143Y-129325714D01*
X194143334Y-140592381D02*
X193810000Y-140116190D01*
X193571905Y-140592381D02*
X193571905Y-139592381D01*
X193952858Y-139592381D01*
X194048096Y-139640000D01*
X194095715Y-139687619D01*
X194143334Y-139782857D01*
X194143334Y-139925714D01*
X194095715Y-140020952D01*
X194048096Y-140068571D01*
X193952858Y-140116190D01*
X193571905Y-140116190D01*
X195000477Y-139592381D02*
X194810000Y-139592381D01*
X194714762Y-139640000D01*
X194667143Y-139687619D01*
X194571905Y-139830476D01*
X194524286Y-140020952D01*
X194524286Y-140401905D01*
X194571905Y-140497143D01*
X194619524Y-140544762D01*
X194714762Y-140592381D01*
X194905239Y-140592381D01*
X195000477Y-140544762D01*
X195048096Y-140497143D01*
X195095715Y-140401905D01*
X195095715Y-140163810D01*
X195048096Y-140068571D01*
X195000477Y-140020952D01*
X194905239Y-139973333D01*
X194714762Y-139973333D01*
X194619524Y-140020952D01*
X194571905Y-140068571D01*
X194524286Y-140163810D01*
X177998381Y-167616095D02*
X176998381Y-167616095D01*
X176998381Y-167235142D01*
X177046000Y-167139904D01*
X177093619Y-167092285D01*
X177188857Y-167044666D01*
X177331714Y-167044666D01*
X177426952Y-167092285D01*
X177474571Y-167139904D01*
X177522190Y-167235142D01*
X177522190Y-167616095D01*
X177093619Y-166663714D02*
X177046000Y-166616095D01*
X176998381Y-166520857D01*
X176998381Y-166282761D01*
X177046000Y-166187523D01*
X177093619Y-166139904D01*
X177188857Y-166092285D01*
X177284095Y-166092285D01*
X177426952Y-166139904D01*
X177998381Y-166711333D01*
X177998381Y-166092285D01*
X201763334Y-144792381D02*
X201430000Y-144316190D01*
X201191905Y-144792381D02*
X201191905Y-143792381D01*
X201572858Y-143792381D01*
X201668096Y-143840000D01*
X201715715Y-143887619D01*
X201763334Y-143982857D01*
X201763334Y-144125714D01*
X201715715Y-144220952D01*
X201668096Y-144268571D01*
X201572858Y-144316190D01*
X201191905Y-144316190D01*
X202096667Y-143792381D02*
X202763334Y-143792381D01*
X202334762Y-144792381D01*
M02*
