G04 #@! TF.FileFunction,Legend,Top*
%FSLAX46Y46*%
G04 Gerber Fmt 4.6, Leading zero omitted, Abs format (unit mm)*
G04 Created by KiCad (PCBNEW (2015-10-22 BZR 6274, Git d63c017)-product) date 25.10.2015 14:05:11*
%MOMM*%
G01*
G04 APERTURE LIST*
%ADD10C,0.150000*%
G04 APERTURE END LIST*
D10*
X174490000Y-134965000D02*
X168490000Y-134965000D01*
X168490000Y-130465000D02*
X174490000Y-130465000D01*
X208788000Y-120396000D02*
X201168000Y-120396000D01*
X208788000Y-122936000D02*
X201168000Y-122936000D01*
X211608000Y-123216000D02*
X210058000Y-123216000D01*
X201168000Y-120396000D02*
X201168000Y-122936000D01*
X208788000Y-122936000D02*
X208788000Y-120396000D01*
X210058000Y-120116000D02*
X211608000Y-120116000D01*
X211608000Y-120116000D02*
X211608000Y-123216000D01*
X169545000Y-119761000D02*
X169545000Y-121666000D01*
X169545000Y-124206000D02*
X169545000Y-123444000D01*
X169545000Y-126619000D02*
X169545000Y-126746000D01*
X169545000Y-126619000D02*
X169545000Y-125984000D01*
X169545000Y-130429000D02*
X169545000Y-128651000D01*
X173228000Y-130429000D02*
X173228000Y-128778000D01*
X173355000Y-126111000D02*
X173355000Y-126746000D01*
X173355000Y-123571000D02*
X173355000Y-124206000D01*
X173228000Y-119761000D02*
X173228000Y-121412000D01*
X168402000Y-126619000D02*
X169545000Y-126619000D01*
X168402000Y-123571000D02*
X169545000Y-123571000D01*
X169545000Y-119761000D02*
X173228000Y-119761000D01*
X173228000Y-130429000D02*
X169545000Y-130429000D01*
X168402000Y-119761000D02*
X169545000Y-119761000D01*
X169545000Y-130429000D02*
X168402000Y-130429000D01*
X168402000Y-125095000D02*
X168402000Y-130429000D01*
X168402000Y-125095000D02*
X168402000Y-119761000D01*
X182880000Y-128270000D02*
X182880000Y-123190000D01*
X182880000Y-123190000D02*
X185420000Y-123190000D01*
X185420000Y-123190000D02*
X185420000Y-128270000D01*
X185420000Y-128270000D02*
X182880000Y-128270000D01*
X184150000Y-128270000D02*
X184150000Y-129540000D01*
X184150000Y-123190000D02*
X184150000Y-121920000D01*
X191770000Y-128270000D02*
X191770000Y-123190000D01*
X191770000Y-123190000D02*
X194310000Y-123190000D01*
X194310000Y-123190000D02*
X194310000Y-128270000D01*
X194310000Y-128270000D02*
X191770000Y-128270000D01*
X193040000Y-128270000D02*
X193040000Y-129540000D01*
X193040000Y-123190000D02*
X193040000Y-121920000D01*
X181610000Y-123190000D02*
X181610000Y-128270000D01*
X181610000Y-128270000D02*
X179070000Y-128270000D01*
X179070000Y-128270000D02*
X179070000Y-123190000D01*
X179070000Y-123190000D02*
X181610000Y-123190000D01*
X180340000Y-123190000D02*
X180340000Y-121920000D01*
X180340000Y-128270000D02*
X180340000Y-129540000D01*
X190500000Y-123190000D02*
X190500000Y-128270000D01*
X190500000Y-128270000D02*
X187960000Y-128270000D01*
X187960000Y-128270000D02*
X187960000Y-123190000D01*
X187960000Y-123190000D02*
X190500000Y-123190000D01*
X189230000Y-123190000D02*
X189230000Y-121920000D01*
X189230000Y-128270000D02*
X189230000Y-129540000D01*
X202438000Y-131572000D02*
X202438000Y-134620000D01*
X202438000Y-134620000D02*
X209550000Y-134620000D01*
X209550000Y-134620000D02*
X209550000Y-131572000D01*
X202438000Y-128524000D02*
X202438000Y-127762000D01*
X202438000Y-127762000D02*
X203962000Y-125476000D01*
X203962000Y-125476000D02*
X208026000Y-125476000D01*
X208026000Y-125476000D02*
X209550000Y-127762000D01*
X209550000Y-127762000D02*
X209550000Y-128524000D01*
X195580000Y-140335000D02*
X195580000Y-142875000D01*
X195860000Y-137515000D02*
X195860000Y-139065000D01*
X195580000Y-140335000D02*
X193040000Y-140335000D01*
X192760000Y-139065000D02*
X192760000Y-137515000D01*
X192760000Y-137515000D02*
X195860000Y-137515000D01*
X193040000Y-140335000D02*
X193040000Y-142875000D01*
X193040000Y-142875000D02*
X195580000Y-142875000D01*
X182880000Y-165750000D02*
X182880000Y-145750300D01*
X182880000Y-145750300D02*
X212848200Y-145750300D01*
X212848200Y-145750300D02*
X212848200Y-165750000D01*
X212848200Y-165749700D02*
X182880000Y-165749700D01*
X171323334Y-136572143D02*
X171275715Y-136619762D01*
X171132858Y-136667381D01*
X171037620Y-136667381D01*
X170894762Y-136619762D01*
X170799524Y-136524524D01*
X170751905Y-136429286D01*
X170704286Y-136238810D01*
X170704286Y-136095952D01*
X170751905Y-135905476D01*
X170799524Y-135810238D01*
X170894762Y-135715000D01*
X171037620Y-135667381D01*
X171132858Y-135667381D01*
X171275715Y-135715000D01*
X171323334Y-135762619D01*
X171704286Y-135762619D02*
X171751905Y-135715000D01*
X171847143Y-135667381D01*
X172085239Y-135667381D01*
X172180477Y-135715000D01*
X172228096Y-135762619D01*
X172275715Y-135857857D01*
X172275715Y-135953095D01*
X172228096Y-136095952D01*
X171656667Y-136667381D01*
X172275715Y-136667381D01*
X215610381Y-122404095D02*
X214610381Y-122404095D01*
X214610381Y-122023142D01*
X214658000Y-121927904D01*
X214705619Y-121880285D01*
X214800857Y-121832666D01*
X214943714Y-121832666D01*
X215038952Y-121880285D01*
X215086571Y-121927904D01*
X215134190Y-122023142D01*
X215134190Y-122404095D01*
X215610381Y-120880285D02*
X215610381Y-121451714D01*
X215610381Y-121166000D02*
X214610381Y-121166000D01*
X214753238Y-121261238D01*
X214848476Y-121356476D01*
X214896095Y-121451714D01*
X165822381Y-125856905D02*
X166631905Y-125856905D01*
X166727143Y-125809286D01*
X166774762Y-125761667D01*
X166822381Y-125666429D01*
X166822381Y-125475952D01*
X166774762Y-125380714D01*
X166727143Y-125333095D01*
X166631905Y-125285476D01*
X165822381Y-125285476D01*
X166155714Y-124380714D02*
X166822381Y-124380714D01*
X165774762Y-124618810D02*
X166489048Y-124856905D01*
X166489048Y-124237857D01*
X181102261Y-125647746D02*
X180626070Y-125981080D01*
X181102261Y-126219175D02*
X180102261Y-126219175D01*
X180102261Y-125838222D01*
X180149880Y-125742984D01*
X180197499Y-125695365D01*
X180292737Y-125647746D01*
X180435594Y-125647746D01*
X180530832Y-125695365D01*
X180578451Y-125742984D01*
X180626070Y-125838222D01*
X180626070Y-126219175D01*
X181102261Y-124695365D02*
X181102261Y-125266794D01*
X181102261Y-124981080D02*
X180102261Y-124981080D01*
X180245118Y-125076318D01*
X180340356Y-125171556D01*
X180387975Y-125266794D01*
X189992261Y-125647746D02*
X189516070Y-125981080D01*
X189992261Y-126219175D02*
X188992261Y-126219175D01*
X188992261Y-125838222D01*
X189039880Y-125742984D01*
X189087499Y-125695365D01*
X189182737Y-125647746D01*
X189325594Y-125647746D01*
X189420832Y-125695365D01*
X189468451Y-125742984D01*
X189516070Y-125838222D01*
X189516070Y-126219175D01*
X189087499Y-125266794D02*
X189039880Y-125219175D01*
X188992261Y-125123937D01*
X188992261Y-124885841D01*
X189039880Y-124790603D01*
X189087499Y-124742984D01*
X189182737Y-124695365D01*
X189277975Y-124695365D01*
X189420832Y-124742984D01*
X189992261Y-125314413D01*
X189992261Y-124695365D01*
X184292501Y-126145586D02*
X183816310Y-126478920D01*
X184292501Y-126717015D02*
X183292501Y-126717015D01*
X183292501Y-126336062D01*
X183340120Y-126240824D01*
X183387739Y-126193205D01*
X183482977Y-126145586D01*
X183625834Y-126145586D01*
X183721072Y-126193205D01*
X183768691Y-126240824D01*
X183816310Y-126336062D01*
X183816310Y-126717015D01*
X183292501Y-125812253D02*
X183292501Y-125193205D01*
X183673453Y-125526539D01*
X183673453Y-125383681D01*
X183721072Y-125288443D01*
X183768691Y-125240824D01*
X183863930Y-125193205D01*
X184102025Y-125193205D01*
X184197263Y-125240824D01*
X184244882Y-125288443D01*
X184292501Y-125383681D01*
X184292501Y-125669396D01*
X184244882Y-125764634D01*
X184197263Y-125812253D01*
X193182501Y-126145586D02*
X192706310Y-126478920D01*
X193182501Y-126717015D02*
X192182501Y-126717015D01*
X192182501Y-126336062D01*
X192230120Y-126240824D01*
X192277739Y-126193205D01*
X192372977Y-126145586D01*
X192515834Y-126145586D01*
X192611072Y-126193205D01*
X192658691Y-126240824D01*
X192706310Y-126336062D01*
X192706310Y-126717015D01*
X192515834Y-125288443D02*
X193182501Y-125288443D01*
X192134882Y-125526539D02*
X192849168Y-125764634D01*
X192849168Y-125145586D01*
X205232095Y-128738381D02*
X205232095Y-129547905D01*
X205279714Y-129643143D01*
X205327333Y-129690762D01*
X205422571Y-129738381D01*
X205613048Y-129738381D01*
X205708286Y-129690762D01*
X205755905Y-129643143D01*
X205803524Y-129547905D01*
X205803524Y-128738381D01*
X206232095Y-128833619D02*
X206279714Y-128786000D01*
X206374952Y-128738381D01*
X206613048Y-128738381D01*
X206708286Y-128786000D01*
X206755905Y-128833619D01*
X206803524Y-128928857D01*
X206803524Y-129024095D01*
X206755905Y-129166952D01*
X206184476Y-129738381D01*
X206803524Y-129738381D01*
X193476667Y-133417381D02*
X193476667Y-134131667D01*
X193429047Y-134274524D01*
X193333809Y-134369762D01*
X193190952Y-134417381D01*
X193095714Y-134417381D01*
X193952857Y-134417381D02*
X193952857Y-133417381D01*
X194333810Y-133417381D01*
X194429048Y-133465000D01*
X194476667Y-133512619D01*
X194524286Y-133607857D01*
X194524286Y-133750714D01*
X194476667Y-133845952D01*
X194429048Y-133893571D01*
X194333810Y-133941190D01*
X193952857Y-133941190D01*
X195476667Y-134417381D02*
X194905238Y-134417381D01*
X195190952Y-134417381D02*
X195190952Y-133417381D01*
X195095714Y-133560238D01*
X195000476Y-133655476D01*
X194905238Y-133703095D01*
X196931905Y-154902381D02*
X196931905Y-153902381D01*
X197312858Y-153902381D01*
X197408096Y-153950000D01*
X197455715Y-153997619D01*
X197503334Y-154092857D01*
X197503334Y-154235714D01*
X197455715Y-154330952D01*
X197408096Y-154378571D01*
X197312858Y-154426190D01*
X196931905Y-154426190D01*
X197836667Y-153902381D02*
X198455715Y-153902381D01*
X198122381Y-154283333D01*
X198265239Y-154283333D01*
X198360477Y-154330952D01*
X198408096Y-154378571D01*
X198455715Y-154473810D01*
X198455715Y-154711905D01*
X198408096Y-154807143D01*
X198360477Y-154854762D01*
X198265239Y-154902381D01*
X197979524Y-154902381D01*
X197884286Y-154854762D01*
X197836667Y-154807143D01*
X183336667Y-150916667D02*
X183812858Y-150916667D01*
X183241429Y-151202381D02*
X183574762Y-150202381D01*
X183908096Y-151202381D01*
X184812858Y-151107143D02*
X184765239Y-151154762D01*
X184622382Y-151202381D01*
X184527144Y-151202381D01*
X184384286Y-151154762D01*
X184289048Y-151059524D01*
X184241429Y-150964286D01*
X184193810Y-150773810D01*
X184193810Y-150630952D01*
X184241429Y-150440476D01*
X184289048Y-150345238D01*
X184384286Y-150250000D01*
X184527144Y-150202381D01*
X184622382Y-150202381D01*
X184765239Y-150250000D01*
X184812858Y-150297619D01*
X186003334Y-150202381D02*
X186003334Y-151011905D01*
X186050953Y-151107143D01*
X186098572Y-151154762D01*
X186193810Y-151202381D01*
X186384287Y-151202381D01*
X186479525Y-151154762D01*
X186527144Y-151107143D01*
X186574763Y-151011905D01*
X186574763Y-150202381D01*
X187050953Y-151202381D02*
X187050953Y-150535714D01*
X187050953Y-150202381D02*
X187003334Y-150250000D01*
X187050953Y-150297619D01*
X187098572Y-150250000D01*
X187050953Y-150202381D01*
X187050953Y-150297619D01*
X187527143Y-150535714D02*
X187527143Y-151202381D01*
X187527143Y-150630952D02*
X187574762Y-150583333D01*
X187670000Y-150535714D01*
X187812858Y-150535714D01*
X187908096Y-150583333D01*
X187955715Y-150678571D01*
X187955715Y-151202381D01*
X211039048Y-150071429D02*
X211800953Y-150071429D01*
X211039048Y-160071429D02*
X211800953Y-160071429D01*
X211420001Y-160452381D02*
X211420001Y-159690476D01*
M02*
