G04 #@! TF.FileFunction,Copper,L2,Bot,Mixed*
%FSLAX46Y46*%
G04 Gerber Fmt 4.6, Leading zero omitted, Abs format (unit mm)*
G04 Created by KiCad (PCBNEW (2015-10-22 BZR 6274, Git d63c017)-product) date 25.10.2015 14:05:11*
%MOMM*%
G01*
G04 APERTURE LIST*
%ADD10C,0.150000*%
%ADD11R,1.300000X1.300000*%
%ADD12C,1.300000*%
%ADD13R,1.400000X1.400000*%
%ADD14C,1.400000*%
%ADD15R,1.501140X1.501140*%
%ADD16C,1.501140*%
%ADD17R,1.727200X2.032000*%
%ADD18O,1.727200X2.032000*%
%ADD19O,3.962400X1.981200*%
%ADD20R,1.000000X1.000000*%
%ADD21R,1.500000X0.900000*%
%ADD22R,0.900000X1.500000*%
%ADD23O,3.500120X1.699260*%
%ADD24C,1.998980*%
%ADD25R,2.032000X2.032000*%
%ADD26O,2.032000X2.032000*%
%ADD27C,2.799080*%
%ADD28C,0.889000*%
%ADD29C,0.500000*%
%ADD30C,1.000000*%
G04 APERTURE END LIST*
D10*
D11*
X184785000Y-139700000D03*
D12*
X187285000Y-139700000D03*
D13*
X173990000Y-132715000D03*
D14*
X168990000Y-132715000D03*
D15*
X189786260Y-146050000D03*
D16*
X189786260Y-148590000D03*
X189786260Y-151130000D03*
X179786280Y-151130000D03*
X179786280Y-148590000D03*
X179786280Y-146050000D03*
D17*
X210058000Y-121666000D03*
D18*
X207518000Y-121666000D03*
X204978000Y-121666000D03*
X202438000Y-121666000D03*
D19*
X170180000Y-163830000D03*
X170180000Y-158830000D03*
X170180000Y-148830000D03*
X170180000Y-153830000D03*
D20*
X197935000Y-137545000D03*
X199935000Y-137545000D03*
X201935000Y-137545000D03*
X203935000Y-137545000D03*
X205935000Y-137545000D03*
X207935000Y-137545000D03*
X209935000Y-137545000D03*
X197935000Y-125345000D03*
X199935000Y-125345000D03*
X201935000Y-125345000D03*
X203935000Y-125345000D03*
X205935000Y-125345000D03*
X207935000Y-125345000D03*
X209935000Y-125345000D03*
D21*
X190500000Y-162280000D03*
X190500000Y-161010000D03*
X190500000Y-159740000D03*
X190500000Y-158460000D03*
X190500000Y-157200000D03*
X190500000Y-155930000D03*
X190500000Y-154650000D03*
X190500000Y-153380000D03*
D22*
X202000000Y-151830000D03*
D23*
X171450000Y-125095000D03*
X171450000Y-127635000D03*
X171450000Y-122555000D03*
D24*
X184150000Y-130810000D03*
X184150000Y-120650000D03*
X193040000Y-130810000D03*
X193040000Y-120650000D03*
X180340000Y-120650000D03*
X180340000Y-130810000D03*
X189230000Y-120650000D03*
X189230000Y-130810000D03*
D25*
X194310000Y-139065000D03*
D26*
X194310000Y-141605000D03*
D27*
X184420000Y-148250000D03*
X184420000Y-153250000D03*
X211420000Y-162750000D03*
X211420000Y-152750000D03*
D28*
X209935000Y-139110200D03*
X200029100Y-141665300D03*
D29*
X200689600Y-163480400D02*
X211420000Y-152750000D01*
X189367300Y-163480400D02*
X200689600Y-163480400D01*
X188999700Y-163112800D02*
X189367300Y-163480400D01*
X188999700Y-161010000D02*
X188999700Y-163112800D01*
X190500000Y-161010000D02*
X188999700Y-161010000D01*
X196011500Y-125345000D02*
X197935000Y-125345000D01*
X191135000Y-130221500D02*
X196011500Y-125345000D01*
X191135000Y-131949700D02*
X191135000Y-130221500D01*
X184785000Y-138299700D02*
X191135000Y-131949700D01*
X184785000Y-139700000D02*
X184785000Y-138299700D01*
X197943000Y-129042000D02*
X187285000Y-139700000D01*
X207935000Y-129042000D02*
X197943000Y-129042000D01*
X212194400Y-133301400D02*
X207935000Y-129042000D01*
X212194400Y-143944600D02*
X212194400Y-133301400D01*
X193859000Y-162280000D02*
X212194400Y-143944600D01*
X190500000Y-162280000D02*
X193859000Y-162280000D01*
X207935000Y-129042000D02*
X207935000Y-125345000D01*
X209935000Y-137545000D02*
X209935000Y-138795300D01*
X209935000Y-138795300D02*
X209935000Y-139110200D01*
D30*
X168990000Y-147640000D02*
X168990000Y-132715000D01*
X170180000Y-148830000D02*
X168990000Y-147640000D01*
D29*
X201935000Y-139759400D02*
X200029100Y-141665300D01*
X201935000Y-137545000D02*
X201935000Y-139759400D01*
D30*
X181778700Y-149137600D02*
X179786300Y-151130000D01*
X181778700Y-133181300D02*
X181778700Y-149137600D01*
X184150000Y-130810000D02*
X181778700Y-133181300D01*
D29*
X196076300Y-140654000D02*
X197935000Y-138795300D01*
X196076300Y-141605000D02*
X196076300Y-140654000D01*
X194310000Y-141605000D02*
X196076300Y-141605000D01*
X197935000Y-137545000D02*
X197935000Y-138795300D01*
X210830400Y-136294700D02*
X197935000Y-136294700D01*
X211185400Y-136649700D02*
X210830400Y-136294700D01*
X211185400Y-140083000D02*
X211185400Y-136649700D01*
X192000300Y-159268100D02*
X211185400Y-140083000D01*
X192000300Y-159740000D02*
X192000300Y-159268100D01*
X190500000Y-159740000D02*
X192000300Y-159740000D01*
X197935000Y-137545000D02*
X197935000Y-136294700D01*
X208291300Y-119899300D02*
X210058000Y-121666000D01*
X201769700Y-119899300D02*
X208291300Y-119899300D01*
X200771300Y-120897700D02*
X201769700Y-119899300D01*
X200771300Y-122931000D02*
X200771300Y-120897700D01*
X201935000Y-124094700D02*
X200771300Y-122931000D01*
X201935000Y-125345000D02*
X201935000Y-124094700D01*
X205089300Y-124094700D02*
X207518000Y-121666000D01*
X203935000Y-124094700D02*
X205089300Y-124094700D01*
X203935000Y-125345000D02*
X203935000Y-124094700D01*
D30*
X170180000Y-158830000D02*
X173161500Y-158830000D01*
X173161500Y-153830000D02*
X173161500Y-158830000D01*
X179562700Y-153830000D02*
X173161500Y-153830000D01*
X184420000Y-148972700D02*
X179562700Y-153830000D01*
X184420000Y-148250000D02*
X184420000Y-148972700D01*
X173161500Y-153830000D02*
X170180000Y-153830000D01*
D29*
X199935000Y-139164500D02*
X199935000Y-137545000D01*
X195550800Y-143548700D02*
X199935000Y-139164500D01*
X188292900Y-143548700D02*
X195550800Y-143548700D01*
X187256400Y-144585200D02*
X188292900Y-143548700D01*
X187256400Y-156716700D02*
X187256400Y-144585200D01*
X188999700Y-158460000D02*
X187256400Y-156716700D01*
X190500000Y-158460000D02*
X188999700Y-158460000D01*
X190500000Y-155930000D02*
X188999700Y-155930000D01*
X203935000Y-137545000D02*
X203935000Y-138795300D01*
X203935000Y-139467200D02*
X203935000Y-138795300D01*
X198853100Y-144549100D02*
X203935000Y-139467200D01*
X188716500Y-144549100D02*
X198853100Y-144549100D01*
X188256800Y-145008800D02*
X188716500Y-144549100D01*
X188256800Y-155187100D02*
X188256800Y-145008800D01*
X188999700Y-155930000D02*
X188256800Y-155187100D01*
X205935000Y-140715300D02*
X205935000Y-137545000D01*
X192000300Y-154650000D02*
X205935000Y-140715300D01*
X190500000Y-154650000D02*
X192000300Y-154650000D01*
X190500000Y-157200000D02*
X192000300Y-157200000D01*
X207935000Y-141265300D02*
X192000300Y-157200000D01*
X207935000Y-137545000D02*
X207935000Y-141265300D01*
M02*
