G04 #@! TF.FileFunction,Legend,Bot*
%FSLAX46Y46*%
G04 Gerber Fmt 4.6, Leading zero omitted, Abs format (unit mm)*
G04 Created by KiCad (PCBNEW (2015-10-22 BZR 6274, Git d63c017)-product) date 27.10.2015 2:59:36*
%MOMM*%
G01*
G04 APERTURE LIST*
%ADD10C,0.150000*%
G04 APERTURE END LIST*
D10*
X175219360Y-136469120D02*
X175219360Y-137170160D01*
X175219360Y-137170160D02*
X175920400Y-137170160D01*
X169420540Y-136469120D02*
X169420540Y-145470880D01*
X169420540Y-145470880D02*
X176019460Y-145470880D01*
X176019460Y-145470880D02*
X176019460Y-136469120D01*
X176019460Y-136469120D02*
X169420540Y-136469120D01*
X191220000Y-138180000D02*
X208620000Y-138180000D01*
X208620000Y-138180000D02*
X208620000Y-125980000D01*
X208620000Y-125980000D02*
X191220000Y-125980000D01*
X191220000Y-125980000D02*
X191220000Y-138180000D01*
X204190000Y-163330000D02*
X204190000Y-162080000D01*
X204190000Y-162080000D02*
X200190000Y-162080000D01*
X200190000Y-162080000D02*
X200190000Y-160830000D01*
X200190000Y-160830000D02*
X204190000Y-160830000D01*
X204190000Y-160830000D02*
X204190000Y-159580000D01*
X204190000Y-159580000D02*
X200190000Y-159580000D01*
X200190000Y-159580000D02*
X200190000Y-158330000D01*
X200190000Y-158330000D02*
X204190000Y-158330000D01*
X204190000Y-158330000D02*
X204190000Y-157080000D01*
X204190000Y-157080000D02*
X200190000Y-157080000D01*
X200190000Y-157080000D02*
X200190000Y-155830000D01*
X200190000Y-155830000D02*
X204190000Y-155830000D01*
X204190000Y-155830000D02*
X204190000Y-152330000D01*
X197190000Y-163330000D02*
X204190000Y-163330000D01*
X198190000Y-156830000D02*
X198190000Y-163330000D01*
X186690000Y-163830000D02*
X204690000Y-163830000D01*
X204690000Y-163830000D02*
X204690000Y-151830000D01*
X204690000Y-151830000D02*
X186690000Y-151830000D01*
X186690000Y-163830000D02*
X186690000Y-151830000D01*
X175712381Y-139993810D02*
X174712381Y-139993810D01*
X175617143Y-141041429D02*
X175664762Y-140993810D01*
X175712381Y-140850953D01*
X175712381Y-140755715D01*
X175664762Y-140612857D01*
X175569524Y-140517619D01*
X175474286Y-140470000D01*
X175283810Y-140422381D01*
X175140952Y-140422381D01*
X174950476Y-140470000D01*
X174855238Y-140517619D01*
X174760000Y-140612857D01*
X174712381Y-140755715D01*
X174712381Y-140850953D01*
X174760000Y-140993810D01*
X174807619Y-141041429D01*
X175712381Y-141993810D02*
X175712381Y-141422381D01*
X175712381Y-141708095D02*
X174712381Y-141708095D01*
X174855238Y-141612857D01*
X174950476Y-141517619D01*
X174998095Y-141422381D01*
X178252381Y-136175715D02*
X178252381Y-135604286D01*
X178252381Y-135890000D02*
X177252381Y-135890000D01*
X177395238Y-135794762D01*
X177490476Y-135699524D01*
X177538095Y-135604286D01*
X200681905Y-133232381D02*
X200681905Y-134041905D01*
X200634286Y-134137143D01*
X200586667Y-134184762D01*
X200491429Y-134232381D01*
X200300952Y-134232381D01*
X200205714Y-134184762D01*
X200158095Y-134137143D01*
X200110476Y-134041905D01*
X200110476Y-133232381D01*
X199110476Y-134232381D02*
X199681905Y-134232381D01*
X199396191Y-134232381D02*
X199396191Y-133232381D01*
X199491429Y-133375238D01*
X199586667Y-133470476D01*
X199681905Y-133518095D01*
X202913905Y-129722571D02*
X202580571Y-129722571D01*
X202437714Y-130246381D02*
X202913905Y-130246381D01*
X202913905Y-129246381D01*
X202437714Y-129246381D01*
X202056762Y-130198762D02*
X201913905Y-130246381D01*
X201675809Y-130246381D01*
X201580571Y-130198762D01*
X201532952Y-130151143D01*
X201485333Y-130055905D01*
X201485333Y-129960667D01*
X201532952Y-129865429D01*
X201580571Y-129817810D01*
X201675809Y-129770190D01*
X201866286Y-129722571D01*
X201961524Y-129674952D01*
X202009143Y-129627333D01*
X202056762Y-129532095D01*
X202056762Y-129436857D01*
X202009143Y-129341619D01*
X201961524Y-129294000D01*
X201866286Y-129246381D01*
X201628190Y-129246381D01*
X201485333Y-129294000D01*
X201056762Y-130246381D02*
X201056762Y-129246381D01*
X200675809Y-129246381D01*
X200580571Y-129294000D01*
X200532952Y-129341619D01*
X200485333Y-129436857D01*
X200485333Y-129579714D01*
X200532952Y-129674952D01*
X200580571Y-129722571D01*
X200675809Y-129770190D01*
X201056762Y-129770190D01*
X200056762Y-129865429D02*
X199294857Y-129865429D01*
X198628191Y-129246381D02*
X198532952Y-129246381D01*
X198437714Y-129294000D01*
X198390095Y-129341619D01*
X198342476Y-129436857D01*
X198294857Y-129627333D01*
X198294857Y-129865429D01*
X198342476Y-130055905D01*
X198390095Y-130151143D01*
X198437714Y-130198762D01*
X198532952Y-130246381D01*
X198628191Y-130246381D01*
X198723429Y-130198762D01*
X198771048Y-130151143D01*
X198818667Y-130055905D01*
X198866286Y-129865429D01*
X198866286Y-129627333D01*
X198818667Y-129436857D01*
X198771048Y-129341619D01*
X198723429Y-129294000D01*
X198628191Y-129246381D01*
X197961524Y-129246381D02*
X197342476Y-129246381D01*
X197675810Y-129627333D01*
X197532952Y-129627333D01*
X197437714Y-129674952D01*
X197390095Y-129722571D01*
X197342476Y-129817810D01*
X197342476Y-130055905D01*
X197390095Y-130151143D01*
X197437714Y-130198762D01*
X197532952Y-130246381D01*
X197818667Y-130246381D01*
X197913905Y-130198762D01*
X197961524Y-130151143D01*
X196832857Y-164508571D02*
X196832857Y-165722857D01*
X196761429Y-165865714D01*
X196690000Y-165937143D01*
X196547143Y-166008571D01*
X196261429Y-166008571D01*
X196118571Y-165937143D01*
X196047143Y-165865714D01*
X195975714Y-165722857D01*
X195975714Y-164508571D01*
X195404285Y-164508571D02*
X194475714Y-164508571D01*
X194975714Y-165080000D01*
X194761428Y-165080000D01*
X194618571Y-165151429D01*
X194547142Y-165222857D01*
X194475714Y-165365714D01*
X194475714Y-165722857D01*
X194547142Y-165865714D01*
X194618571Y-165937143D01*
X194761428Y-166008571D01*
X195190000Y-166008571D01*
X195332857Y-165937143D01*
X195404285Y-165865714D01*
X201361713Y-154856571D02*
X201361713Y-153356571D01*
X200504570Y-154856571D01*
X200504570Y-153356571D01*
X198933141Y-154856571D02*
X199433141Y-154142286D01*
X199790284Y-154856571D02*
X199790284Y-153356571D01*
X199218856Y-153356571D01*
X199075998Y-153428000D01*
X199004570Y-153499429D01*
X198933141Y-153642286D01*
X198933141Y-153856571D01*
X199004570Y-153999429D01*
X199075998Y-154070857D01*
X199218856Y-154142286D01*
X199790284Y-154142286D01*
X197790284Y-154070857D02*
X198290284Y-154070857D01*
X198290284Y-154856571D02*
X198290284Y-153356571D01*
X197575998Y-153356571D01*
X197075999Y-153499429D02*
X197004570Y-153428000D01*
X196861713Y-153356571D01*
X196504570Y-153356571D01*
X196361713Y-153428000D01*
X196290284Y-153499429D01*
X196218856Y-153642286D01*
X196218856Y-153785143D01*
X196290284Y-153999429D01*
X197147427Y-154856571D01*
X196218856Y-154856571D01*
X194933142Y-153856571D02*
X194933142Y-154856571D01*
X195290285Y-153285143D02*
X195647428Y-154356571D01*
X194718856Y-154356571D01*
X193433142Y-154856571D02*
X194147428Y-154856571D01*
X194147428Y-153356571D01*
X192647428Y-153356571D02*
X192504571Y-153356571D01*
X192361714Y-153428000D01*
X192290285Y-153499429D01*
X192218856Y-153642286D01*
X192147428Y-153928000D01*
X192147428Y-154285143D01*
X192218856Y-154570857D01*
X192290285Y-154713714D01*
X192361714Y-154785143D01*
X192504571Y-154856571D01*
X192647428Y-154856571D01*
X192790285Y-154785143D01*
X192861714Y-154713714D01*
X192933142Y-154570857D01*
X193004571Y-154285143D01*
X193004571Y-153928000D01*
X192933142Y-153642286D01*
X192861714Y-153499429D01*
X192790285Y-153428000D01*
X192647428Y-153356571D01*
X190718857Y-154856571D02*
X191576000Y-154856571D01*
X191147428Y-154856571D02*
X191147428Y-153356571D01*
X191290285Y-153570857D01*
X191433143Y-153713714D01*
X191576000Y-153785143D01*
X190076000Y-154856571D02*
X190076000Y-153356571D01*
X189504572Y-153356571D01*
X189361714Y-153428000D01*
X189290286Y-153499429D01*
X189218857Y-153642286D01*
X189218857Y-153856571D01*
X189290286Y-153999429D01*
X189361714Y-154070857D01*
X189504572Y-154142286D01*
X190076000Y-154142286D01*
M02*
