G04 #@! TF.FileFunction,Copper,L1,Top,Mixed*
%FSLAX46Y46*%
G04 Gerber Fmt 4.6, Leading zero omitted, Abs format (unit mm)*
G04 Created by KiCad (PCBNEW (2015-10-22 BZR 6274, Git d63c017)-product) date 25.10.2015 14:05:11*
%MOMM*%
G01*
G04 APERTURE LIST*
%ADD10C,0.150000*%
%ADD11R,1.300000X1.300000*%
%ADD12C,1.300000*%
%ADD13R,1.400000X1.400000*%
%ADD14C,1.400000*%
%ADD15R,1.501140X1.501140*%
%ADD16C,1.501140*%
%ADD17R,1.727200X2.032000*%
%ADD18O,1.727200X2.032000*%
%ADD19O,3.962400X1.981200*%
%ADD20O,3.500120X1.699260*%
%ADD21C,1.998980*%
%ADD22R,3.657600X2.032000*%
%ADD23R,1.016000X2.032000*%
%ADD24R,2.032000X2.032000*%
%ADD25O,2.032000X2.032000*%
%ADD26C,2.799080*%
%ADD27C,0.889000*%
%ADD28C,0.500000*%
%ADD29C,1.000000*%
G04 APERTURE END LIST*
D10*
D11*
X184785000Y-139700000D03*
D12*
X187285000Y-139700000D03*
D13*
X173990000Y-132715000D03*
D14*
X168990000Y-132715000D03*
D15*
X189786260Y-146050000D03*
D16*
X189786260Y-148590000D03*
X189786260Y-151130000D03*
X179786280Y-151130000D03*
X179786280Y-148590000D03*
X179786280Y-146050000D03*
D17*
X210058000Y-121666000D03*
D18*
X207518000Y-121666000D03*
X204978000Y-121666000D03*
X202438000Y-121666000D03*
D19*
X170180000Y-163830000D03*
X170180000Y-158830000D03*
X170180000Y-148830000D03*
X170180000Y-153830000D03*
D20*
X171450000Y-125095000D03*
X171450000Y-127635000D03*
X171450000Y-122555000D03*
D21*
X184150000Y-130810000D03*
X184150000Y-120650000D03*
X193040000Y-130810000D03*
X193040000Y-120650000D03*
X180340000Y-120650000D03*
X180340000Y-130810000D03*
X189230000Y-120650000D03*
X189230000Y-130810000D03*
D22*
X205994000Y-126746000D03*
D23*
X205994000Y-133350000D03*
X208280000Y-133350000D03*
X203708000Y-133350000D03*
D24*
X194310000Y-139065000D03*
D25*
X194310000Y-141605000D03*
D26*
X184420000Y-148250000D03*
X184420000Y-153250000D03*
X211420000Y-162750000D03*
X211420000Y-152750000D03*
D27*
X209935000Y-139110200D03*
X200029100Y-141665300D03*
D28*
X203708000Y-133350000D02*
X203708000Y-135116300D01*
X200767300Y-128643000D02*
X203708000Y-131583700D01*
X200767300Y-120825700D02*
X200767300Y-128643000D01*
X201702900Y-119890100D02*
X200767300Y-120825700D01*
X203202100Y-119890100D02*
X201702900Y-119890100D01*
X204978000Y-121666000D02*
X203202100Y-119890100D01*
X203708000Y-133350000D02*
X203708000Y-131583700D01*
X193946300Y-152750000D02*
X189786300Y-148590000D01*
X211420000Y-152750000D02*
X193946300Y-152750000D01*
X184785000Y-143676900D02*
X184785000Y-139700000D01*
X189698100Y-148590000D02*
X184785000Y-143676900D01*
X189786300Y-148590000D02*
X189698100Y-148590000D01*
X199759300Y-139065000D02*
X194310000Y-139065000D01*
X203708000Y-135116300D02*
X199759300Y-139065000D01*
X191764700Y-138286000D02*
X192543700Y-139065000D01*
X186199000Y-138286000D02*
X191764700Y-138286000D01*
X184785000Y-139700000D02*
X186199000Y-138286000D01*
X194310000Y-139065000D02*
X192543700Y-139065000D01*
X205994000Y-133350000D02*
X205994000Y-135116300D01*
X205662200Y-135448100D02*
X205662200Y-136644200D01*
X205994000Y-135116300D02*
X205662200Y-135448100D01*
X208128200Y-139110200D02*
X209935000Y-139110200D01*
X205662200Y-136644200D02*
X208128200Y-139110200D01*
X190997500Y-143412500D02*
X187285000Y-139700000D01*
X195419600Y-143412500D02*
X190997500Y-143412500D01*
X198467800Y-140364300D02*
X195419600Y-143412500D01*
X201942100Y-140364300D02*
X198467800Y-140364300D01*
X205662200Y-136644200D02*
X201942100Y-140364300D01*
D29*
X175806500Y-132831200D02*
X175690300Y-132715000D01*
X187208800Y-132831200D02*
X175806500Y-132831200D01*
X189230000Y-130810000D02*
X187208800Y-132831200D01*
X173990000Y-132715000D02*
X175690300Y-132715000D01*
X177581500Y-153250000D02*
X173161500Y-148830000D01*
X184420000Y-153250000D02*
X177581500Y-153250000D01*
X170180000Y-148830000D02*
X173161500Y-148830000D01*
X171450000Y-127635000D02*
X171450000Y-129484900D01*
X171450000Y-130810000D02*
X171450000Y-129484900D01*
X180340000Y-130810000D02*
X171450000Y-130810000D01*
X170895000Y-130810000D02*
X168990000Y-132715000D01*
X171450000Y-130810000D02*
X170895000Y-130810000D01*
D28*
X195644400Y-146050000D02*
X200029100Y-141665300D01*
X189786300Y-146050000D02*
X195644400Y-146050000D01*
D29*
X179786300Y-141978300D02*
X179786300Y-146050000D01*
X185115400Y-136649200D02*
X179786300Y-141978300D01*
X187200800Y-136649200D02*
X185115400Y-136649200D01*
X193040000Y-130810000D02*
X187200800Y-136649200D01*
D28*
X202438000Y-127176800D02*
X202438000Y-121666000D01*
X206844900Y-131583700D02*
X202438000Y-127176800D01*
X208280000Y-131583700D02*
X206844900Y-131583700D01*
X208280000Y-133350000D02*
X208280000Y-131583700D01*
X213601700Y-140438000D02*
X208280000Y-135116300D01*
X213601700Y-160568300D02*
X213601700Y-140438000D01*
X211420000Y-162750000D02*
X213601700Y-160568300D01*
X208280000Y-133350000D02*
X208280000Y-135116300D01*
D29*
X189230000Y-120650000D02*
X193040000Y-120650000D01*
X184785000Y-125095000D02*
X171450000Y-125095000D01*
X189230000Y-120650000D02*
X184785000Y-125095000D01*
X167198500Y-126596100D02*
X167198500Y-163830000D01*
X168699600Y-125095000D02*
X167198500Y-126596100D01*
X171450000Y-125095000D02*
X168699600Y-125095000D01*
X170180000Y-163830000D02*
X167198500Y-163830000D01*
X184150000Y-120650000D02*
X180340000Y-120650000D01*
X171505100Y-120650000D02*
X171450000Y-120705100D01*
X180340000Y-120650000D02*
X171505100Y-120650000D01*
X171450000Y-122555000D02*
X171450000Y-120705100D01*
M02*
