G04 #@! TF.FileFunction,Legend,Bot*
%FSLAX46Y46*%
G04 Gerber Fmt 4.6, Leading zero omitted, Abs format (unit mm)*
G04 Created by KiCad (PCBNEW (2015-10-22 BZR 6274, Git d63c017)-product) date 25.10.2015 13:12:17*
%MOMM*%
G01*
G04 APERTURE LIST*
%ADD10C,0.150000*%
G04 APERTURE END LIST*
D10*
X184535000Y-140950000D02*
X187535000Y-140950000D01*
X187535000Y-138450000D02*
X184535000Y-138450000D01*
X187284360Y-144089120D02*
X187284360Y-144790160D01*
X187284360Y-144790160D02*
X187985400Y-144790160D01*
X181485540Y-144089120D02*
X181485540Y-153090880D01*
X181485540Y-153090880D02*
X188084460Y-153090880D01*
X188084460Y-153090880D02*
X188084460Y-144089120D01*
X188084460Y-144089120D02*
X181485540Y-144089120D01*
X170434000Y-143650000D02*
X167640000Y-143650000D01*
X167640000Y-143650000D02*
X167640000Y-141110000D01*
X167640000Y-141110000D02*
X170434000Y-141110000D01*
X173609000Y-144462800D02*
X176149000Y-144462800D01*
X176149000Y-144462800D02*
X176149000Y-140398800D01*
X176149000Y-140398800D02*
X173609000Y-140398800D01*
X173609000Y-140398800D02*
X173609000Y-144462800D01*
X174625000Y-144056400D02*
X175260000Y-141008400D01*
X174498000Y-143929400D02*
X175133000Y-140881400D01*
X174265430Y-140962028D02*
G75*
G02X175232060Y-140909340I509430J-452772D01*
G01*
X174345104Y-143904728D02*
G75*
G02X174297340Y-140916960I1905496J1524728D01*
G01*
X175236844Y-140905589D02*
G75*
G02X175183800Y-144056400I-1348444J-1553151D01*
G01*
X175233481Y-144005097D02*
G75*
G02X174307500Y-143863360I-407821J431297D01*
G01*
X165862000Y-144412000D02*
X165862000Y-140348000D01*
X163957000Y-140348000D02*
X170434000Y-140348000D01*
X169672000Y-144031000D02*
X169672000Y-143650000D01*
X169672000Y-144031000D02*
X166497000Y-144031000D01*
X166497000Y-144031000D02*
X166497000Y-140729000D01*
X166497000Y-140729000D02*
X169672000Y-140729000D01*
X169672000Y-140729000D02*
X169672000Y-141110000D01*
X170815000Y-139890000D02*
X170815000Y-134810000D01*
X163957000Y-144412000D02*
X170434000Y-144412000D01*
X170434000Y-144412000D02*
X170434000Y-140348000D01*
X163957000Y-135445000D02*
X163957000Y-139382000D01*
X163957000Y-139232000D02*
X163957000Y-145328000D01*
X173228000Y-134810000D02*
X173228000Y-154980000D01*
X176403000Y-134660000D02*
X176403000Y-154980000D01*
X170815000Y-139740000D02*
X170815000Y-154916500D01*
X166179500Y-139445500D02*
X170434000Y-139445500D01*
X175233481Y-138975097D02*
G75*
G02X174307500Y-138833360I-407821J431297D01*
G01*
X175236844Y-135875589D02*
G75*
G02X175183800Y-139026400I-1348444J-1553151D01*
G01*
X174345104Y-138874728D02*
G75*
G02X174297340Y-135886960I1905496J1524728D01*
G01*
X174265430Y-135932028D02*
G75*
G02X175232060Y-135879340I509430J-452772D01*
G01*
X170434000Y-139051800D02*
X170434000Y-135749800D01*
X170434000Y-139432800D02*
X170434000Y-139051800D01*
X170434000Y-135368800D02*
X170434000Y-135749800D01*
X174498000Y-138899400D02*
X175133000Y-135851400D01*
X174625000Y-139026400D02*
X175260000Y-135978400D01*
X173609000Y-135368800D02*
X173609000Y-139432800D01*
X176149000Y-135368800D02*
X173609000Y-135368800D01*
X176149000Y-139432800D02*
X176149000Y-135368800D01*
X173609000Y-139432800D02*
X176149000Y-139432800D01*
X173355000Y-134810000D02*
X171831000Y-134810000D01*
X170815000Y-134810000D02*
X166116000Y-134810000D01*
X171831000Y-134810000D02*
X170815000Y-134810000D01*
X169672000Y-135749800D02*
X169672000Y-136130800D01*
X169672000Y-139051800D02*
X169672000Y-138670800D01*
X166497000Y-139051800D02*
X169672000Y-139051800D01*
X166497000Y-135749800D02*
X166497000Y-139051800D01*
X166497000Y-135749800D02*
X169672000Y-135749800D01*
X165862000Y-135368800D02*
X163957000Y-135368800D01*
X165862000Y-139432800D02*
X165862000Y-135368800D01*
X163957000Y-135368800D02*
X163957000Y-134810000D01*
X170434000Y-135368800D02*
X165862000Y-135368800D01*
X163957000Y-139432800D02*
X165862000Y-139432800D01*
X166370000Y-134302000D02*
X164719000Y-134302000D01*
X166116000Y-134810000D02*
X164973000Y-134810000D01*
X166370000Y-134302000D02*
X166116000Y-134810000D01*
X164973000Y-134810000D02*
X163957000Y-134810000D01*
X164719000Y-134302000D02*
X164973000Y-134810000D01*
X171577000Y-134302000D02*
X171831000Y-134810000D01*
X176403000Y-134302000D02*
X171577000Y-134302000D01*
X176403000Y-134810000D02*
X176403000Y-134302000D01*
X176403000Y-134810000D02*
X173355000Y-134810000D01*
X167640000Y-138670800D02*
X170434000Y-138670800D01*
X170434000Y-138670800D02*
X170434000Y-136130800D01*
X167640000Y-136130800D02*
X170434000Y-136130800D01*
X167640000Y-138670800D02*
X167640000Y-136130800D01*
X167640000Y-153684600D02*
X167640000Y-151144600D01*
X167640000Y-151144600D02*
X170434000Y-151144600D01*
X170434000Y-153684600D02*
X170434000Y-151144600D01*
X167640000Y-153684600D02*
X170434000Y-153684600D01*
X167640000Y-148680800D02*
X167640000Y-146140800D01*
X167640000Y-146140800D02*
X170434000Y-146140800D01*
X170434000Y-148680800D02*
X170434000Y-146140800D01*
X167640000Y-148680800D02*
X170434000Y-148680800D01*
X164973000Y-139445500D02*
X163957000Y-139445500D01*
X166116000Y-139445500D02*
X164973000Y-139445500D01*
X163957000Y-149442800D02*
X165862000Y-149442800D01*
X170434000Y-145378800D02*
X165862000Y-145378800D01*
X163957000Y-149442800D02*
X163957000Y-145378800D01*
X163957000Y-150382600D02*
X165862000Y-150382600D01*
X163957000Y-150382600D02*
X163957000Y-149442800D01*
X170434000Y-154446600D02*
X165862000Y-154446600D01*
X163957000Y-154980000D02*
X163957000Y-154446600D01*
X163957000Y-154446600D02*
X163957000Y-150382600D01*
X165862000Y-149442800D02*
X165862000Y-145378800D01*
X165862000Y-149442800D02*
X170434000Y-149442800D01*
X165862000Y-145378800D02*
X163957000Y-145378800D01*
X165862000Y-150382600D02*
X165862000Y-154446600D01*
X165862000Y-150382600D02*
X170434000Y-150382600D01*
X165862000Y-154446600D02*
X163957000Y-154446600D01*
X166497000Y-145759800D02*
X169672000Y-145759800D01*
X166497000Y-145759800D02*
X166497000Y-149061800D01*
X166497000Y-149061800D02*
X169672000Y-149061800D01*
X166497000Y-150763600D02*
X169672000Y-150763600D01*
X166497000Y-150763600D02*
X166497000Y-154065600D01*
X166497000Y-154065600D02*
X169672000Y-154065600D01*
X169672000Y-154065600D02*
X169672000Y-153684600D01*
X169672000Y-150763600D02*
X169672000Y-151144600D01*
X169672000Y-149061800D02*
X169672000Y-148680800D01*
X169672000Y-145759800D02*
X169672000Y-146140800D01*
X163957000Y-154980000D02*
X170815000Y-154980000D01*
X170815000Y-154980000D02*
X173355000Y-154980000D01*
X173355000Y-154980000D02*
X176403000Y-154980000D01*
X173609000Y-149442800D02*
X176149000Y-149442800D01*
X176149000Y-149442800D02*
X176149000Y-145378800D01*
X176149000Y-145378800D02*
X173609000Y-145378800D01*
X173609000Y-145378800D02*
X173609000Y-149442800D01*
X173609000Y-150382600D02*
X176149000Y-150382600D01*
X173609000Y-150382600D02*
X173609000Y-154446600D01*
X173609000Y-154446600D02*
X176149000Y-154446600D01*
X176149000Y-150382600D02*
X176149000Y-154446600D01*
X174625000Y-149036400D02*
X175260000Y-145988400D01*
X174498000Y-148909400D02*
X175133000Y-145861400D01*
X174625000Y-154040200D02*
X175260000Y-150989660D01*
X174498000Y-153913200D02*
X175133000Y-150865200D01*
X170434000Y-154446600D02*
X170434000Y-154065600D01*
X170434000Y-150382600D02*
X170434000Y-150763600D01*
X170434000Y-150763600D02*
X170434000Y-154065600D01*
X170434000Y-145378800D02*
X170434000Y-145759800D01*
X170434000Y-149442800D02*
X170434000Y-149061800D01*
X170434000Y-149061800D02*
X170434000Y-145759800D01*
X174265430Y-145942028D02*
G75*
G02X175232060Y-145889340I509430J-452772D01*
G01*
X174345104Y-148884728D02*
G75*
G02X174297340Y-145896960I1905496J1524728D01*
G01*
X175236844Y-145885589D02*
G75*
G02X175183800Y-149036400I-1348444J-1553151D01*
G01*
X175233481Y-148985097D02*
G75*
G02X174307500Y-148843360I-407821J431297D01*
G01*
X174262890Y-150945851D02*
G75*
G02X175232060Y-150890600I511970J-452749D01*
G01*
X174345104Y-153885988D02*
G75*
G02X174297340Y-150898220I1905496J1524728D01*
G01*
X175241847Y-150883427D02*
G75*
G02X175183800Y-154040200I-1353447J-1554033D01*
G01*
X175231019Y-153989520D02*
G75*
G02X174307500Y-153844620I-405359J431920D01*
G01*
X196935000Y-137545000D02*
X214335000Y-137545000D01*
X214335000Y-137545000D02*
X214335000Y-125345000D01*
X214335000Y-125345000D02*
X196935000Y-125345000D01*
X196935000Y-125345000D02*
X196935000Y-137545000D01*
X213715000Y-161425000D02*
X213715000Y-160175000D01*
X213715000Y-160175000D02*
X209715000Y-160175000D01*
X209715000Y-160175000D02*
X209715000Y-158925000D01*
X209715000Y-158925000D02*
X213715000Y-158925000D01*
X213715000Y-158925000D02*
X213715000Y-157675000D01*
X213715000Y-157675000D02*
X209715000Y-157675000D01*
X209715000Y-157675000D02*
X209715000Y-156425000D01*
X209715000Y-156425000D02*
X213715000Y-156425000D01*
X213715000Y-156425000D02*
X213715000Y-155175000D01*
X213715000Y-155175000D02*
X209715000Y-155175000D01*
X209715000Y-155175000D02*
X209715000Y-153925000D01*
X209715000Y-153925000D02*
X213715000Y-153925000D01*
X213715000Y-153925000D02*
X213715000Y-150425000D01*
X206715000Y-161425000D02*
X213715000Y-161425000D01*
X207715000Y-154925000D02*
X207715000Y-161425000D01*
X196215000Y-161925000D02*
X214215000Y-161925000D01*
X214215000Y-161925000D02*
X214215000Y-149925000D01*
X214215000Y-149925000D02*
X196215000Y-149925000D01*
X196215000Y-161925000D02*
X196215000Y-149925000D01*
X186201666Y-142557143D02*
X186249285Y-142604762D01*
X186392142Y-142652381D01*
X186487380Y-142652381D01*
X186630238Y-142604762D01*
X186725476Y-142509524D01*
X186773095Y-142414286D01*
X186820714Y-142223810D01*
X186820714Y-142080952D01*
X186773095Y-141890476D01*
X186725476Y-141795238D01*
X186630238Y-141700000D01*
X186487380Y-141652381D01*
X186392142Y-141652381D01*
X186249285Y-141700000D01*
X186201666Y-141747619D01*
X185249285Y-142652381D02*
X185820714Y-142652381D01*
X185535000Y-142652381D02*
X185535000Y-141652381D01*
X185630238Y-141795238D01*
X185725476Y-141890476D01*
X185820714Y-141938095D01*
X175077381Y-147613810D02*
X174077381Y-147613810D01*
X174982143Y-148661429D02*
X175029762Y-148613810D01*
X175077381Y-148470953D01*
X175077381Y-148375715D01*
X175029762Y-148232857D01*
X174934524Y-148137619D01*
X174839286Y-148090000D01*
X174648810Y-148042381D01*
X174505952Y-148042381D01*
X174315476Y-148090000D01*
X174220238Y-148137619D01*
X174125000Y-148232857D01*
X174077381Y-148375715D01*
X174077381Y-148470953D01*
X174125000Y-148613810D01*
X174172619Y-148661429D01*
X175077381Y-149613810D02*
X175077381Y-149042381D01*
X175077381Y-149328095D02*
X174077381Y-149328095D01*
X174220238Y-149232857D01*
X174315476Y-149137619D01*
X174363095Y-149042381D01*
X190317381Y-143795715D02*
X190317381Y-143224286D01*
X190317381Y-143510000D02*
X189317381Y-143510000D01*
X189460238Y-143414762D01*
X189555476Y-143319524D01*
X189603095Y-143224286D01*
X177617381Y-153606905D02*
X176617381Y-153606905D01*
X176617381Y-153987858D01*
X176665000Y-154083096D01*
X176712619Y-154130715D01*
X176807857Y-154178334D01*
X176950714Y-154178334D01*
X177045952Y-154130715D01*
X177093571Y-154083096D01*
X177141190Y-153987858D01*
X177141190Y-153606905D01*
X176712619Y-154559286D02*
X176665000Y-154606905D01*
X176617381Y-154702143D01*
X176617381Y-154940239D01*
X176665000Y-155035477D01*
X176712619Y-155083096D01*
X176807857Y-155130715D01*
X176903095Y-155130715D01*
X177045952Y-155083096D01*
X177617381Y-154511667D01*
X177617381Y-155130715D01*
X206396905Y-132597381D02*
X206396905Y-133406905D01*
X206349286Y-133502143D01*
X206301667Y-133549762D01*
X206206429Y-133597381D01*
X206015952Y-133597381D01*
X205920714Y-133549762D01*
X205873095Y-133502143D01*
X205825476Y-133406905D01*
X205825476Y-132597381D01*
X204825476Y-133597381D02*
X205396905Y-133597381D01*
X205111191Y-133597381D02*
X205111191Y-132597381D01*
X205206429Y-132740238D01*
X205301667Y-132835476D01*
X205396905Y-132883095D01*
X210649286Y-129173571D02*
X210315952Y-129173571D01*
X210173095Y-129697381D02*
X210649286Y-129697381D01*
X210649286Y-128697381D01*
X210173095Y-128697381D01*
X209792143Y-129649762D02*
X209649286Y-129697381D01*
X209411190Y-129697381D01*
X209315952Y-129649762D01*
X209268333Y-129602143D01*
X209220714Y-129506905D01*
X209220714Y-129411667D01*
X209268333Y-129316429D01*
X209315952Y-129268810D01*
X209411190Y-129221190D01*
X209601667Y-129173571D01*
X209696905Y-129125952D01*
X209744524Y-129078333D01*
X209792143Y-128983095D01*
X209792143Y-128887857D01*
X209744524Y-128792619D01*
X209696905Y-128745000D01*
X209601667Y-128697381D01*
X209363571Y-128697381D01*
X209220714Y-128745000D01*
X208792143Y-129697381D02*
X208792143Y-128697381D01*
X208411190Y-128697381D01*
X208315952Y-128745000D01*
X208268333Y-128792619D01*
X208220714Y-128887857D01*
X208220714Y-129030714D01*
X208268333Y-129125952D01*
X208315952Y-129173571D01*
X208411190Y-129221190D01*
X208792143Y-129221190D01*
X207649286Y-129125952D02*
X207744524Y-129078333D01*
X207792143Y-129030714D01*
X207839762Y-128935476D01*
X207839762Y-128887857D01*
X207792143Y-128792619D01*
X207744524Y-128745000D01*
X207649286Y-128697381D01*
X207458809Y-128697381D01*
X207363571Y-128745000D01*
X207315952Y-128792619D01*
X207268333Y-128887857D01*
X207268333Y-128935476D01*
X207315952Y-129030714D01*
X207363571Y-129078333D01*
X207458809Y-129125952D01*
X207649286Y-129125952D01*
X207744524Y-129173571D01*
X207792143Y-129221190D01*
X207839762Y-129316429D01*
X207839762Y-129506905D01*
X207792143Y-129602143D01*
X207744524Y-129649762D01*
X207649286Y-129697381D01*
X207458809Y-129697381D01*
X207363571Y-129649762D01*
X207315952Y-129602143D01*
X207268333Y-129506905D01*
X207268333Y-129316429D01*
X207315952Y-129221190D01*
X207363571Y-129173571D01*
X207458809Y-129125952D01*
X206887381Y-128792619D02*
X206839762Y-128745000D01*
X206744524Y-128697381D01*
X206506428Y-128697381D01*
X206411190Y-128745000D01*
X206363571Y-128792619D01*
X206315952Y-128887857D01*
X206315952Y-128983095D01*
X206363571Y-129125952D01*
X206935000Y-129697381D01*
X206315952Y-129697381D01*
X205458809Y-128697381D02*
X205649286Y-128697381D01*
X205744524Y-128745000D01*
X205792143Y-128792619D01*
X205887381Y-128935476D01*
X205935000Y-129125952D01*
X205935000Y-129506905D01*
X205887381Y-129602143D01*
X205839762Y-129649762D01*
X205744524Y-129697381D01*
X205554047Y-129697381D01*
X205458809Y-129649762D01*
X205411190Y-129602143D01*
X205363571Y-129506905D01*
X205363571Y-129268810D01*
X205411190Y-129173571D01*
X205458809Y-129125952D01*
X205554047Y-129078333D01*
X205744524Y-129078333D01*
X205839762Y-129125952D01*
X205887381Y-129173571D01*
X205935000Y-129268810D01*
X204506428Y-128697381D02*
X204696905Y-128697381D01*
X204792143Y-128745000D01*
X204839762Y-128792619D01*
X204935000Y-128935476D01*
X204982619Y-129125952D01*
X204982619Y-129506905D01*
X204935000Y-129602143D01*
X204887381Y-129649762D01*
X204792143Y-129697381D01*
X204601666Y-129697381D01*
X204506428Y-129649762D01*
X204458809Y-129602143D01*
X204411190Y-129506905D01*
X204411190Y-129268810D01*
X204458809Y-129173571D01*
X204506428Y-129125952D01*
X204601666Y-129078333D01*
X204792143Y-129078333D01*
X204887381Y-129125952D01*
X204935000Y-129173571D01*
X204982619Y-129268810D01*
X203982619Y-129316429D02*
X203220714Y-129316429D01*
X202744524Y-129173571D02*
X202411190Y-129173571D01*
X202268333Y-129697381D02*
X202744524Y-129697381D01*
X202744524Y-128697381D01*
X202268333Y-128697381D01*
X201887381Y-129649762D02*
X201744524Y-129697381D01*
X201506428Y-129697381D01*
X201411190Y-129649762D01*
X201363571Y-129602143D01*
X201315952Y-129506905D01*
X201315952Y-129411667D01*
X201363571Y-129316429D01*
X201411190Y-129268810D01*
X201506428Y-129221190D01*
X201696905Y-129173571D01*
X201792143Y-129125952D01*
X201839762Y-129078333D01*
X201887381Y-128983095D01*
X201887381Y-128887857D01*
X201839762Y-128792619D01*
X201792143Y-128745000D01*
X201696905Y-128697381D01*
X201458809Y-128697381D01*
X201315952Y-128745000D01*
X200887381Y-129697381D02*
X200887381Y-128697381D01*
X200506428Y-128697381D01*
X200411190Y-128745000D01*
X200363571Y-128792619D01*
X200315952Y-128887857D01*
X200315952Y-129030714D01*
X200363571Y-129125952D01*
X200411190Y-129173571D01*
X200506428Y-129221190D01*
X200887381Y-129221190D01*
X199887381Y-129316429D02*
X199125476Y-129316429D01*
X198458810Y-128697381D02*
X198363571Y-128697381D01*
X198268333Y-128745000D01*
X198220714Y-128792619D01*
X198173095Y-128887857D01*
X198125476Y-129078333D01*
X198125476Y-129316429D01*
X198173095Y-129506905D01*
X198220714Y-129602143D01*
X198268333Y-129649762D01*
X198363571Y-129697381D01*
X198458810Y-129697381D01*
X198554048Y-129649762D01*
X198601667Y-129602143D01*
X198649286Y-129506905D01*
X198696905Y-129316429D01*
X198696905Y-129078333D01*
X198649286Y-128887857D01*
X198601667Y-128792619D01*
X198554048Y-128745000D01*
X198458810Y-128697381D01*
X197792143Y-128697381D02*
X197173095Y-128697381D01*
X197506429Y-129078333D01*
X197363571Y-129078333D01*
X197268333Y-129125952D01*
X197220714Y-129173571D01*
X197173095Y-129268810D01*
X197173095Y-129506905D01*
X197220714Y-129602143D01*
X197268333Y-129649762D01*
X197363571Y-129697381D01*
X197649286Y-129697381D01*
X197744524Y-129649762D01*
X197792143Y-129602143D01*
X206357857Y-162603571D02*
X206357857Y-163817857D01*
X206286429Y-163960714D01*
X206215000Y-164032143D01*
X206072143Y-164103571D01*
X205786429Y-164103571D01*
X205643571Y-164032143D01*
X205572143Y-163960714D01*
X205500714Y-163817857D01*
X205500714Y-162603571D01*
X204929285Y-162603571D02*
X204000714Y-162603571D01*
X204500714Y-163175000D01*
X204286428Y-163175000D01*
X204143571Y-163246429D01*
X204072142Y-163317857D01*
X204000714Y-163460714D01*
X204000714Y-163817857D01*
X204072142Y-163960714D01*
X204143571Y-164032143D01*
X204286428Y-164103571D01*
X204715000Y-164103571D01*
X204857857Y-164032143D01*
X204929285Y-163960714D01*
X211393570Y-153353571D02*
X211393570Y-151853571D01*
X210536427Y-153353571D01*
X210536427Y-151853571D01*
X208964998Y-153353571D02*
X209464998Y-152639286D01*
X209822141Y-153353571D02*
X209822141Y-151853571D01*
X209250713Y-151853571D01*
X209107855Y-151925000D01*
X209036427Y-151996429D01*
X208964998Y-152139286D01*
X208964998Y-152353571D01*
X209036427Y-152496429D01*
X209107855Y-152567857D01*
X209250713Y-152639286D01*
X209822141Y-152639286D01*
X207822141Y-152567857D02*
X208322141Y-152567857D01*
X208322141Y-153353571D02*
X208322141Y-151853571D01*
X207607855Y-151853571D01*
X207107856Y-151996429D02*
X207036427Y-151925000D01*
X206893570Y-151853571D01*
X206536427Y-151853571D01*
X206393570Y-151925000D01*
X206322141Y-151996429D01*
X206250713Y-152139286D01*
X206250713Y-152282143D01*
X206322141Y-152496429D01*
X207179284Y-153353571D01*
X206250713Y-153353571D01*
X204964999Y-152353571D02*
X204964999Y-153353571D01*
X205322142Y-151782143D02*
X205679285Y-152853571D01*
X204750713Y-152853571D01*
X203464999Y-153353571D02*
X204179285Y-153353571D01*
X204179285Y-151853571D01*
X202679285Y-151853571D02*
X202536428Y-151853571D01*
X202393571Y-151925000D01*
X202322142Y-151996429D01*
X202250713Y-152139286D01*
X202179285Y-152425000D01*
X202179285Y-152782143D01*
X202250713Y-153067857D01*
X202322142Y-153210714D01*
X202393571Y-153282143D01*
X202536428Y-153353571D01*
X202679285Y-153353571D01*
X202822142Y-153282143D01*
X202893571Y-153210714D01*
X202964999Y-153067857D01*
X203036428Y-152782143D01*
X203036428Y-152425000D01*
X202964999Y-152139286D01*
X202893571Y-151996429D01*
X202822142Y-151925000D01*
X202679285Y-151853571D01*
X200750714Y-153353571D02*
X201607857Y-153353571D01*
X201179285Y-153353571D02*
X201179285Y-151853571D01*
X201322142Y-152067857D01*
X201465000Y-152210714D01*
X201607857Y-152282143D01*
X200107857Y-153353571D02*
X200107857Y-151853571D01*
X199536429Y-151853571D01*
X199393571Y-151925000D01*
X199322143Y-151996429D01*
X199250714Y-152139286D01*
X199250714Y-152353571D01*
X199322143Y-152496429D01*
X199393571Y-152567857D01*
X199536429Y-152639286D01*
X200107857Y-152639286D01*
X198965000Y-153496429D02*
X197822143Y-153496429D01*
X197536429Y-153282143D02*
X197322143Y-153353571D01*
X196965000Y-153353571D01*
X196822143Y-153282143D01*
X196750714Y-153210714D01*
X196679286Y-153067857D01*
X196679286Y-152925000D01*
X196750714Y-152782143D01*
X196822143Y-152710714D01*
X196965000Y-152639286D01*
X197250714Y-152567857D01*
X197393572Y-152496429D01*
X197465000Y-152425000D01*
X197536429Y-152282143D01*
X197536429Y-152139286D01*
X197465000Y-151996429D01*
X197393572Y-151925000D01*
X197250714Y-151853571D01*
X196893572Y-151853571D01*
X196679286Y-151925000D01*
X196036429Y-153353571D02*
X196036429Y-151853571D01*
X195536429Y-152925000D01*
X195036429Y-151853571D01*
X195036429Y-153353571D01*
X194322143Y-153353571D02*
X194322143Y-151853571D01*
X193965000Y-151853571D01*
X193750715Y-151925000D01*
X193607857Y-152067857D01*
X193536429Y-152210714D01*
X193465000Y-152496429D01*
X193465000Y-152710714D01*
X193536429Y-152996429D01*
X193607857Y-153139286D01*
X193750715Y-153282143D01*
X193965000Y-153353571D01*
X194322143Y-153353571D01*
M02*
