G04 #@! TF.FileFunction,Legend,Bot*
%FSLAX46Y46*%
G04 Gerber Fmt 4.6, Leading zero omitted, Abs format (unit mm)*
G04 Created by KiCad (PCBNEW (2015-10-22 BZR 6274, Git d63c017)-product) date 25.10.2015 14:05:11*
%MOMM*%
G01*
G04 APERTURE LIST*
%ADD10C,0.150000*%
G04 APERTURE END LIST*
D10*
X184535000Y-140950000D02*
X187535000Y-140950000D01*
X187535000Y-138450000D02*
X184535000Y-138450000D01*
X187284360Y-144089120D02*
X187284360Y-144790160D01*
X187284360Y-144790160D02*
X187985400Y-144790160D01*
X181485540Y-144089120D02*
X181485540Y-153090880D01*
X181485540Y-153090880D02*
X188084460Y-153090880D01*
X188084460Y-153090880D02*
X188084460Y-144089120D01*
X188084460Y-144089120D02*
X181485540Y-144089120D01*
X170434000Y-155080000D02*
X167640000Y-155080000D01*
X167640000Y-155080000D02*
X167640000Y-152540000D01*
X167640000Y-152540000D02*
X170434000Y-152540000D01*
X173609000Y-155892800D02*
X176149000Y-155892800D01*
X176149000Y-155892800D02*
X176149000Y-151828800D01*
X176149000Y-151828800D02*
X173609000Y-151828800D01*
X173609000Y-151828800D02*
X173609000Y-155892800D01*
X174625000Y-155486400D02*
X175260000Y-152438400D01*
X174498000Y-155359400D02*
X175133000Y-152311400D01*
X174265430Y-152392028D02*
G75*
G02X175232060Y-152339340I509430J-452772D01*
G01*
X174345104Y-155334728D02*
G75*
G02X174297340Y-152346960I1905496J1524728D01*
G01*
X175236844Y-152335589D02*
G75*
G02X175183800Y-155486400I-1348444J-1553151D01*
G01*
X175233481Y-155435097D02*
G75*
G02X174307500Y-155293360I-407821J431297D01*
G01*
X165862000Y-155842000D02*
X165862000Y-151778000D01*
X163957000Y-151778000D02*
X170434000Y-151778000D01*
X169672000Y-155461000D02*
X169672000Y-155080000D01*
X169672000Y-155461000D02*
X166497000Y-155461000D01*
X166497000Y-155461000D02*
X166497000Y-152159000D01*
X166497000Y-152159000D02*
X169672000Y-152159000D01*
X169672000Y-152159000D02*
X169672000Y-152540000D01*
X170815000Y-151320000D02*
X170815000Y-146240000D01*
X163957000Y-155842000D02*
X170434000Y-155842000D01*
X170434000Y-155842000D02*
X170434000Y-151778000D01*
X163957000Y-146875000D02*
X163957000Y-150812000D01*
X163957000Y-150662000D02*
X163957000Y-156758000D01*
X173228000Y-146240000D02*
X173228000Y-166410000D01*
X176403000Y-146090000D02*
X176403000Y-166410000D01*
X170815000Y-151170000D02*
X170815000Y-166346500D01*
X166179500Y-150875500D02*
X170434000Y-150875500D01*
X175233481Y-150405097D02*
G75*
G02X174307500Y-150263360I-407821J431297D01*
G01*
X175236844Y-147305589D02*
G75*
G02X175183800Y-150456400I-1348444J-1553151D01*
G01*
X174345104Y-150304728D02*
G75*
G02X174297340Y-147316960I1905496J1524728D01*
G01*
X174265430Y-147362028D02*
G75*
G02X175232060Y-147309340I509430J-452772D01*
G01*
X170434000Y-150481800D02*
X170434000Y-147179800D01*
X170434000Y-150862800D02*
X170434000Y-150481800D01*
X170434000Y-146798800D02*
X170434000Y-147179800D01*
X174498000Y-150329400D02*
X175133000Y-147281400D01*
X174625000Y-150456400D02*
X175260000Y-147408400D01*
X173609000Y-146798800D02*
X173609000Y-150862800D01*
X176149000Y-146798800D02*
X173609000Y-146798800D01*
X176149000Y-150862800D02*
X176149000Y-146798800D01*
X173609000Y-150862800D02*
X176149000Y-150862800D01*
X173355000Y-146240000D02*
X171831000Y-146240000D01*
X170815000Y-146240000D02*
X166116000Y-146240000D01*
X171831000Y-146240000D02*
X170815000Y-146240000D01*
X169672000Y-147179800D02*
X169672000Y-147560800D01*
X169672000Y-150481800D02*
X169672000Y-150100800D01*
X166497000Y-150481800D02*
X169672000Y-150481800D01*
X166497000Y-147179800D02*
X166497000Y-150481800D01*
X166497000Y-147179800D02*
X169672000Y-147179800D01*
X165862000Y-146798800D02*
X163957000Y-146798800D01*
X165862000Y-150862800D02*
X165862000Y-146798800D01*
X163957000Y-146798800D02*
X163957000Y-146240000D01*
X170434000Y-146798800D02*
X165862000Y-146798800D01*
X163957000Y-150862800D02*
X165862000Y-150862800D01*
X166370000Y-145732000D02*
X164719000Y-145732000D01*
X166116000Y-146240000D02*
X164973000Y-146240000D01*
X166370000Y-145732000D02*
X166116000Y-146240000D01*
X164973000Y-146240000D02*
X163957000Y-146240000D01*
X164719000Y-145732000D02*
X164973000Y-146240000D01*
X171577000Y-145732000D02*
X171831000Y-146240000D01*
X176403000Y-145732000D02*
X171577000Y-145732000D01*
X176403000Y-146240000D02*
X176403000Y-145732000D01*
X176403000Y-146240000D02*
X173355000Y-146240000D01*
X167640000Y-150100800D02*
X170434000Y-150100800D01*
X170434000Y-150100800D02*
X170434000Y-147560800D01*
X167640000Y-147560800D02*
X170434000Y-147560800D01*
X167640000Y-150100800D02*
X167640000Y-147560800D01*
X167640000Y-165114600D02*
X167640000Y-162574600D01*
X167640000Y-162574600D02*
X170434000Y-162574600D01*
X170434000Y-165114600D02*
X170434000Y-162574600D01*
X167640000Y-165114600D02*
X170434000Y-165114600D01*
X167640000Y-160110800D02*
X167640000Y-157570800D01*
X167640000Y-157570800D02*
X170434000Y-157570800D01*
X170434000Y-160110800D02*
X170434000Y-157570800D01*
X167640000Y-160110800D02*
X170434000Y-160110800D01*
X164973000Y-150875500D02*
X163957000Y-150875500D01*
X166116000Y-150875500D02*
X164973000Y-150875500D01*
X163957000Y-160872800D02*
X165862000Y-160872800D01*
X170434000Y-156808800D02*
X165862000Y-156808800D01*
X163957000Y-160872800D02*
X163957000Y-156808800D01*
X163957000Y-161812600D02*
X165862000Y-161812600D01*
X163957000Y-161812600D02*
X163957000Y-160872800D01*
X170434000Y-165876600D02*
X165862000Y-165876600D01*
X163957000Y-166410000D02*
X163957000Y-165876600D01*
X163957000Y-165876600D02*
X163957000Y-161812600D01*
X165862000Y-160872800D02*
X165862000Y-156808800D01*
X165862000Y-160872800D02*
X170434000Y-160872800D01*
X165862000Y-156808800D02*
X163957000Y-156808800D01*
X165862000Y-161812600D02*
X165862000Y-165876600D01*
X165862000Y-161812600D02*
X170434000Y-161812600D01*
X165862000Y-165876600D02*
X163957000Y-165876600D01*
X166497000Y-157189800D02*
X169672000Y-157189800D01*
X166497000Y-157189800D02*
X166497000Y-160491800D01*
X166497000Y-160491800D02*
X169672000Y-160491800D01*
X166497000Y-162193600D02*
X169672000Y-162193600D01*
X166497000Y-162193600D02*
X166497000Y-165495600D01*
X166497000Y-165495600D02*
X169672000Y-165495600D01*
X169672000Y-165495600D02*
X169672000Y-165114600D01*
X169672000Y-162193600D02*
X169672000Y-162574600D01*
X169672000Y-160491800D02*
X169672000Y-160110800D01*
X169672000Y-157189800D02*
X169672000Y-157570800D01*
X163957000Y-166410000D02*
X170815000Y-166410000D01*
X170815000Y-166410000D02*
X173355000Y-166410000D01*
X173355000Y-166410000D02*
X176403000Y-166410000D01*
X173609000Y-160872800D02*
X176149000Y-160872800D01*
X176149000Y-160872800D02*
X176149000Y-156808800D01*
X176149000Y-156808800D02*
X173609000Y-156808800D01*
X173609000Y-156808800D02*
X173609000Y-160872800D01*
X173609000Y-161812600D02*
X176149000Y-161812600D01*
X173609000Y-161812600D02*
X173609000Y-165876600D01*
X173609000Y-165876600D02*
X176149000Y-165876600D01*
X176149000Y-161812600D02*
X176149000Y-165876600D01*
X174625000Y-160466400D02*
X175260000Y-157418400D01*
X174498000Y-160339400D02*
X175133000Y-157291400D01*
X174625000Y-165470200D02*
X175260000Y-162419660D01*
X174498000Y-165343200D02*
X175133000Y-162295200D01*
X170434000Y-165876600D02*
X170434000Y-165495600D01*
X170434000Y-161812600D02*
X170434000Y-162193600D01*
X170434000Y-162193600D02*
X170434000Y-165495600D01*
X170434000Y-156808800D02*
X170434000Y-157189800D01*
X170434000Y-160872800D02*
X170434000Y-160491800D01*
X170434000Y-160491800D02*
X170434000Y-157189800D01*
X174265430Y-157372028D02*
G75*
G02X175232060Y-157319340I509430J-452772D01*
G01*
X174345104Y-160314728D02*
G75*
G02X174297340Y-157326960I1905496J1524728D01*
G01*
X175236844Y-157315589D02*
G75*
G02X175183800Y-160466400I-1348444J-1553151D01*
G01*
X175233481Y-160415097D02*
G75*
G02X174307500Y-160273360I-407821J431297D01*
G01*
X174262890Y-162375851D02*
G75*
G02X175232060Y-162320600I511970J-452749D01*
G01*
X174345104Y-165315988D02*
G75*
G02X174297340Y-162328220I1905496J1524728D01*
G01*
X175241847Y-162313427D02*
G75*
G02X175183800Y-165470200I-1353447J-1554033D01*
G01*
X175231019Y-165419520D02*
G75*
G02X174307500Y-165274620I-405359J431920D01*
G01*
X196935000Y-137545000D02*
X214335000Y-137545000D01*
X214335000Y-137545000D02*
X214335000Y-125345000D01*
X214335000Y-125345000D02*
X196935000Y-125345000D01*
X196935000Y-125345000D02*
X196935000Y-137545000D01*
X208000000Y-163330000D02*
X208000000Y-162080000D01*
X208000000Y-162080000D02*
X204000000Y-162080000D01*
X204000000Y-162080000D02*
X204000000Y-160830000D01*
X204000000Y-160830000D02*
X208000000Y-160830000D01*
X208000000Y-160830000D02*
X208000000Y-159580000D01*
X208000000Y-159580000D02*
X204000000Y-159580000D01*
X204000000Y-159580000D02*
X204000000Y-158330000D01*
X204000000Y-158330000D02*
X208000000Y-158330000D01*
X208000000Y-158330000D02*
X208000000Y-157080000D01*
X208000000Y-157080000D02*
X204000000Y-157080000D01*
X204000000Y-157080000D02*
X204000000Y-155830000D01*
X204000000Y-155830000D02*
X208000000Y-155830000D01*
X208000000Y-155830000D02*
X208000000Y-152330000D01*
X201000000Y-163330000D02*
X208000000Y-163330000D01*
X202000000Y-156830000D02*
X202000000Y-163330000D01*
X190500000Y-163830000D02*
X208500000Y-163830000D01*
X208500000Y-163830000D02*
X208500000Y-151830000D01*
X208500000Y-151830000D02*
X190500000Y-151830000D01*
X190500000Y-163830000D02*
X190500000Y-151830000D01*
X186201666Y-142557143D02*
X186249285Y-142604762D01*
X186392142Y-142652381D01*
X186487380Y-142652381D01*
X186630238Y-142604762D01*
X186725476Y-142509524D01*
X186773095Y-142414286D01*
X186820714Y-142223810D01*
X186820714Y-142080952D01*
X186773095Y-141890476D01*
X186725476Y-141795238D01*
X186630238Y-141700000D01*
X186487380Y-141652381D01*
X186392142Y-141652381D01*
X186249285Y-141700000D01*
X186201666Y-141747619D01*
X185249285Y-142652381D02*
X185820714Y-142652381D01*
X185535000Y-142652381D02*
X185535000Y-141652381D01*
X185630238Y-141795238D01*
X185725476Y-141890476D01*
X185820714Y-141938095D01*
X175077381Y-147613810D02*
X174077381Y-147613810D01*
X174982143Y-148661429D02*
X175029762Y-148613810D01*
X175077381Y-148470953D01*
X175077381Y-148375715D01*
X175029762Y-148232857D01*
X174934524Y-148137619D01*
X174839286Y-148090000D01*
X174648810Y-148042381D01*
X174505952Y-148042381D01*
X174315476Y-148090000D01*
X174220238Y-148137619D01*
X174125000Y-148232857D01*
X174077381Y-148375715D01*
X174077381Y-148470953D01*
X174125000Y-148613810D01*
X174172619Y-148661429D01*
X175077381Y-149613810D02*
X175077381Y-149042381D01*
X175077381Y-149328095D02*
X174077381Y-149328095D01*
X174220238Y-149232857D01*
X174315476Y-149137619D01*
X174363095Y-149042381D01*
X190317381Y-143795715D02*
X190317381Y-143224286D01*
X190317381Y-143510000D02*
X189317381Y-143510000D01*
X189460238Y-143414762D01*
X189555476Y-143319524D01*
X189603095Y-143224286D01*
X177617381Y-165036905D02*
X176617381Y-165036905D01*
X176617381Y-165417858D01*
X176665000Y-165513096D01*
X176712619Y-165560715D01*
X176807857Y-165608334D01*
X176950714Y-165608334D01*
X177045952Y-165560715D01*
X177093571Y-165513096D01*
X177141190Y-165417858D01*
X177141190Y-165036905D01*
X176712619Y-165989286D02*
X176665000Y-166036905D01*
X176617381Y-166132143D01*
X176617381Y-166370239D01*
X176665000Y-166465477D01*
X176712619Y-166513096D01*
X176807857Y-166560715D01*
X176903095Y-166560715D01*
X177045952Y-166513096D01*
X177617381Y-165941667D01*
X177617381Y-166560715D01*
X206396905Y-132597381D02*
X206396905Y-133406905D01*
X206349286Y-133502143D01*
X206301667Y-133549762D01*
X206206429Y-133597381D01*
X206015952Y-133597381D01*
X205920714Y-133549762D01*
X205873095Y-133502143D01*
X205825476Y-133406905D01*
X205825476Y-132597381D01*
X204825476Y-133597381D02*
X205396905Y-133597381D01*
X205111191Y-133597381D02*
X205111191Y-132597381D01*
X205206429Y-132740238D01*
X205301667Y-132835476D01*
X205396905Y-132883095D01*
X210649286Y-129173571D02*
X210315952Y-129173571D01*
X210173095Y-129697381D02*
X210649286Y-129697381D01*
X210649286Y-128697381D01*
X210173095Y-128697381D01*
X209792143Y-129649762D02*
X209649286Y-129697381D01*
X209411190Y-129697381D01*
X209315952Y-129649762D01*
X209268333Y-129602143D01*
X209220714Y-129506905D01*
X209220714Y-129411667D01*
X209268333Y-129316429D01*
X209315952Y-129268810D01*
X209411190Y-129221190D01*
X209601667Y-129173571D01*
X209696905Y-129125952D01*
X209744524Y-129078333D01*
X209792143Y-128983095D01*
X209792143Y-128887857D01*
X209744524Y-128792619D01*
X209696905Y-128745000D01*
X209601667Y-128697381D01*
X209363571Y-128697381D01*
X209220714Y-128745000D01*
X208792143Y-129697381D02*
X208792143Y-128697381D01*
X208411190Y-128697381D01*
X208315952Y-128745000D01*
X208268333Y-128792619D01*
X208220714Y-128887857D01*
X208220714Y-129030714D01*
X208268333Y-129125952D01*
X208315952Y-129173571D01*
X208411190Y-129221190D01*
X208792143Y-129221190D01*
X207649286Y-129125952D02*
X207744524Y-129078333D01*
X207792143Y-129030714D01*
X207839762Y-128935476D01*
X207839762Y-128887857D01*
X207792143Y-128792619D01*
X207744524Y-128745000D01*
X207649286Y-128697381D01*
X207458809Y-128697381D01*
X207363571Y-128745000D01*
X207315952Y-128792619D01*
X207268333Y-128887857D01*
X207268333Y-128935476D01*
X207315952Y-129030714D01*
X207363571Y-129078333D01*
X207458809Y-129125952D01*
X207649286Y-129125952D01*
X207744524Y-129173571D01*
X207792143Y-129221190D01*
X207839762Y-129316429D01*
X207839762Y-129506905D01*
X207792143Y-129602143D01*
X207744524Y-129649762D01*
X207649286Y-129697381D01*
X207458809Y-129697381D01*
X207363571Y-129649762D01*
X207315952Y-129602143D01*
X207268333Y-129506905D01*
X207268333Y-129316429D01*
X207315952Y-129221190D01*
X207363571Y-129173571D01*
X207458809Y-129125952D01*
X206887381Y-128792619D02*
X206839762Y-128745000D01*
X206744524Y-128697381D01*
X206506428Y-128697381D01*
X206411190Y-128745000D01*
X206363571Y-128792619D01*
X206315952Y-128887857D01*
X206315952Y-128983095D01*
X206363571Y-129125952D01*
X206935000Y-129697381D01*
X206315952Y-129697381D01*
X205458809Y-128697381D02*
X205649286Y-128697381D01*
X205744524Y-128745000D01*
X205792143Y-128792619D01*
X205887381Y-128935476D01*
X205935000Y-129125952D01*
X205935000Y-129506905D01*
X205887381Y-129602143D01*
X205839762Y-129649762D01*
X205744524Y-129697381D01*
X205554047Y-129697381D01*
X205458809Y-129649762D01*
X205411190Y-129602143D01*
X205363571Y-129506905D01*
X205363571Y-129268810D01*
X205411190Y-129173571D01*
X205458809Y-129125952D01*
X205554047Y-129078333D01*
X205744524Y-129078333D01*
X205839762Y-129125952D01*
X205887381Y-129173571D01*
X205935000Y-129268810D01*
X204506428Y-128697381D02*
X204696905Y-128697381D01*
X204792143Y-128745000D01*
X204839762Y-128792619D01*
X204935000Y-128935476D01*
X204982619Y-129125952D01*
X204982619Y-129506905D01*
X204935000Y-129602143D01*
X204887381Y-129649762D01*
X204792143Y-129697381D01*
X204601666Y-129697381D01*
X204506428Y-129649762D01*
X204458809Y-129602143D01*
X204411190Y-129506905D01*
X204411190Y-129268810D01*
X204458809Y-129173571D01*
X204506428Y-129125952D01*
X204601666Y-129078333D01*
X204792143Y-129078333D01*
X204887381Y-129125952D01*
X204935000Y-129173571D01*
X204982619Y-129268810D01*
X203982619Y-129316429D02*
X203220714Y-129316429D01*
X202744524Y-129173571D02*
X202411190Y-129173571D01*
X202268333Y-129697381D02*
X202744524Y-129697381D01*
X202744524Y-128697381D01*
X202268333Y-128697381D01*
X201887381Y-129649762D02*
X201744524Y-129697381D01*
X201506428Y-129697381D01*
X201411190Y-129649762D01*
X201363571Y-129602143D01*
X201315952Y-129506905D01*
X201315952Y-129411667D01*
X201363571Y-129316429D01*
X201411190Y-129268810D01*
X201506428Y-129221190D01*
X201696905Y-129173571D01*
X201792143Y-129125952D01*
X201839762Y-129078333D01*
X201887381Y-128983095D01*
X201887381Y-128887857D01*
X201839762Y-128792619D01*
X201792143Y-128745000D01*
X201696905Y-128697381D01*
X201458809Y-128697381D01*
X201315952Y-128745000D01*
X200887381Y-129697381D02*
X200887381Y-128697381D01*
X200506428Y-128697381D01*
X200411190Y-128745000D01*
X200363571Y-128792619D01*
X200315952Y-128887857D01*
X200315952Y-129030714D01*
X200363571Y-129125952D01*
X200411190Y-129173571D01*
X200506428Y-129221190D01*
X200887381Y-129221190D01*
X199887381Y-129316429D02*
X199125476Y-129316429D01*
X198458810Y-128697381D02*
X198363571Y-128697381D01*
X198268333Y-128745000D01*
X198220714Y-128792619D01*
X198173095Y-128887857D01*
X198125476Y-129078333D01*
X198125476Y-129316429D01*
X198173095Y-129506905D01*
X198220714Y-129602143D01*
X198268333Y-129649762D01*
X198363571Y-129697381D01*
X198458810Y-129697381D01*
X198554048Y-129649762D01*
X198601667Y-129602143D01*
X198649286Y-129506905D01*
X198696905Y-129316429D01*
X198696905Y-129078333D01*
X198649286Y-128887857D01*
X198601667Y-128792619D01*
X198554048Y-128745000D01*
X198458810Y-128697381D01*
X197792143Y-128697381D02*
X197173095Y-128697381D01*
X197506429Y-129078333D01*
X197363571Y-129078333D01*
X197268333Y-129125952D01*
X197220714Y-129173571D01*
X197173095Y-129268810D01*
X197173095Y-129506905D01*
X197220714Y-129602143D01*
X197268333Y-129649762D01*
X197363571Y-129697381D01*
X197649286Y-129697381D01*
X197744524Y-129649762D01*
X197792143Y-129602143D01*
X200642857Y-164508571D02*
X200642857Y-165722857D01*
X200571429Y-165865714D01*
X200500000Y-165937143D01*
X200357143Y-166008571D01*
X200071429Y-166008571D01*
X199928571Y-165937143D01*
X199857143Y-165865714D01*
X199785714Y-165722857D01*
X199785714Y-164508571D01*
X199214285Y-164508571D02*
X198285714Y-164508571D01*
X198785714Y-165080000D01*
X198571428Y-165080000D01*
X198428571Y-165151429D01*
X198357142Y-165222857D01*
X198285714Y-165365714D01*
X198285714Y-165722857D01*
X198357142Y-165865714D01*
X198428571Y-165937143D01*
X198571428Y-166008571D01*
X199000000Y-166008571D01*
X199142857Y-165937143D01*
X199214285Y-165865714D01*
X205678570Y-155258571D02*
X205678570Y-153758571D01*
X204821427Y-155258571D01*
X204821427Y-153758571D01*
X203249998Y-155258571D02*
X203749998Y-154544286D01*
X204107141Y-155258571D02*
X204107141Y-153758571D01*
X203535713Y-153758571D01*
X203392855Y-153830000D01*
X203321427Y-153901429D01*
X203249998Y-154044286D01*
X203249998Y-154258571D01*
X203321427Y-154401429D01*
X203392855Y-154472857D01*
X203535713Y-154544286D01*
X204107141Y-154544286D01*
X202107141Y-154472857D02*
X202607141Y-154472857D01*
X202607141Y-155258571D02*
X202607141Y-153758571D01*
X201892855Y-153758571D01*
X201392856Y-153901429D02*
X201321427Y-153830000D01*
X201178570Y-153758571D01*
X200821427Y-153758571D01*
X200678570Y-153830000D01*
X200607141Y-153901429D01*
X200535713Y-154044286D01*
X200535713Y-154187143D01*
X200607141Y-154401429D01*
X201464284Y-155258571D01*
X200535713Y-155258571D01*
X199249999Y-154258571D02*
X199249999Y-155258571D01*
X199607142Y-153687143D02*
X199964285Y-154758571D01*
X199035713Y-154758571D01*
X197749999Y-155258571D02*
X198464285Y-155258571D01*
X198464285Y-153758571D01*
X196964285Y-153758571D02*
X196821428Y-153758571D01*
X196678571Y-153830000D01*
X196607142Y-153901429D01*
X196535713Y-154044286D01*
X196464285Y-154330000D01*
X196464285Y-154687143D01*
X196535713Y-154972857D01*
X196607142Y-155115714D01*
X196678571Y-155187143D01*
X196821428Y-155258571D01*
X196964285Y-155258571D01*
X197107142Y-155187143D01*
X197178571Y-155115714D01*
X197249999Y-154972857D01*
X197321428Y-154687143D01*
X197321428Y-154330000D01*
X197249999Y-154044286D01*
X197178571Y-153901429D01*
X197107142Y-153830000D01*
X196964285Y-153758571D01*
X195035714Y-155258571D02*
X195892857Y-155258571D01*
X195464285Y-155258571D02*
X195464285Y-153758571D01*
X195607142Y-153972857D01*
X195750000Y-154115714D01*
X195892857Y-154187143D01*
X194392857Y-155258571D02*
X194392857Y-153758571D01*
X193821429Y-153758571D01*
X193678571Y-153830000D01*
X193607143Y-153901429D01*
X193535714Y-154044286D01*
X193535714Y-154258571D01*
X193607143Y-154401429D01*
X193678571Y-154472857D01*
X193821429Y-154544286D01*
X194392857Y-154544286D01*
X193250000Y-155401429D02*
X192107143Y-155401429D01*
X191821429Y-155187143D02*
X191607143Y-155258571D01*
X191250000Y-155258571D01*
X191107143Y-155187143D01*
X191035714Y-155115714D01*
X190964286Y-154972857D01*
X190964286Y-154830000D01*
X191035714Y-154687143D01*
X191107143Y-154615714D01*
X191250000Y-154544286D01*
X191535714Y-154472857D01*
X191678572Y-154401429D01*
X191750000Y-154330000D01*
X191821429Y-154187143D01*
X191821429Y-154044286D01*
X191750000Y-153901429D01*
X191678572Y-153830000D01*
X191535714Y-153758571D01*
X191178572Y-153758571D01*
X190964286Y-153830000D01*
X190321429Y-155258571D02*
X190321429Y-153758571D01*
X189821429Y-154830000D01*
X189321429Y-153758571D01*
X189321429Y-155258571D01*
X188607143Y-155258571D02*
X188607143Y-153758571D01*
X188250000Y-153758571D01*
X188035715Y-153830000D01*
X187892857Y-153972857D01*
X187821429Y-154115714D01*
X187750000Y-154401429D01*
X187750000Y-154615714D01*
X187821429Y-154901429D01*
X187892857Y-155044286D01*
X188035715Y-155187143D01*
X188250000Y-155258571D01*
X188607143Y-155258571D01*
M02*
