G04 #@! TF.FileFunction,Copper,L2,Bot,Mixed*
%FSLAX46Y46*%
G04 Gerber Fmt 4.6, Leading zero omitted, Abs format (unit mm)*
G04 Created by KiCad (PCBNEW (2015-10-22 BZR 6274, Git d63c017)-product) date 27.10.2015 3:27:05*
%MOMM*%
G01*
G04 APERTURE LIST*
%ADD10C,0.150000*%
%ADD11R,1.300000X1.300000*%
%ADD12C,1.300000*%
%ADD13R,1.400000X1.400000*%
%ADD14C,1.400000*%
%ADD15R,1.501140X1.501140*%
%ADD16C,1.501140*%
%ADD17R,1.727200X2.032000*%
%ADD18O,1.727200X2.032000*%
%ADD19R,1.000000X1.000000*%
%ADD20R,1.500000X0.900000*%
%ADD21R,0.900000X1.500000*%
%ADD22O,3.500120X1.699260*%
%ADD23C,1.998980*%
%ADD24R,2.032000X2.032000*%
%ADD25O,2.032000X2.032000*%
%ADD26C,2.799080*%
%ADD27O,3.962400X1.981200*%
%ADD28C,0.889000*%
%ADD29C,0.500000*%
%ADD30C,0.260000*%
%ADD31C,1.000000*%
G04 APERTURE END LIST*
D10*
D11*
X181610000Y-140970000D03*
D12*
X184110000Y-140970000D03*
D13*
X172720000Y-133985000D03*
D14*
X167720000Y-133985000D03*
D15*
X177721260Y-138430000D03*
D16*
X177721260Y-140970000D03*
X177721260Y-143510000D03*
X167721280Y-143510000D03*
X167721280Y-140970000D03*
X167721280Y-138430000D03*
D17*
X205740000Y-121920000D03*
D18*
X203200000Y-121920000D03*
X200660000Y-121920000D03*
X198120000Y-121920000D03*
D19*
X192220000Y-138180000D03*
X194220000Y-138180000D03*
X196220000Y-138180000D03*
X198220000Y-138180000D03*
X200220000Y-138180000D03*
X202220000Y-138180000D03*
X204220000Y-138180000D03*
X192220000Y-125980000D03*
X194220000Y-125980000D03*
X196220000Y-125980000D03*
X198220000Y-125980000D03*
X200220000Y-125980000D03*
X202220000Y-125980000D03*
X204220000Y-125980000D03*
D20*
X186690000Y-162280000D03*
X186690000Y-161010000D03*
X186690000Y-159740000D03*
X186690000Y-158460000D03*
X186690000Y-157200000D03*
X186690000Y-155930000D03*
X186690000Y-154650000D03*
X186690000Y-153380000D03*
D21*
X198190000Y-151830000D03*
D22*
X170180000Y-126365000D03*
X170180000Y-128905000D03*
X170180000Y-123825000D03*
D23*
X180340000Y-132080000D03*
X180340000Y-121920000D03*
X189230000Y-132080000D03*
X189230000Y-121920000D03*
X176530000Y-121920000D03*
X176530000Y-132080000D03*
X185420000Y-121920000D03*
X185420000Y-132080000D03*
D24*
X187960000Y-139700000D03*
D25*
X187960000Y-142240000D03*
D26*
X180610000Y-149520000D03*
X180610000Y-154520000D03*
X207610000Y-164020000D03*
X207610000Y-154020000D03*
D27*
X170180000Y-165100000D03*
X170180000Y-160100000D03*
X170180000Y-150100000D03*
X170180000Y-155100000D03*
D28*
X205701000Y-137903000D03*
X205643000Y-128190000D03*
X191727100Y-143791500D03*
D29*
X200620000Y-161010000D02*
X186690000Y-161010000D01*
X207610000Y-154020000D02*
X200620000Y-161010000D01*
X197850000Y-124730000D02*
X200660000Y-121920000D01*
X192220000Y-124730000D02*
X197850000Y-124730000D01*
X192220000Y-125980000D02*
X192220000Y-124730000D01*
X183012000Y-142372000D02*
X181610000Y-140970000D01*
X184736000Y-142372000D02*
X183012000Y-142372000D01*
X186194000Y-140914000D02*
X184736000Y-142372000D01*
X186194000Y-139700000D02*
X186194000Y-140914000D01*
X187960000Y-139700000D02*
X186194000Y-139700000D01*
D30*
X182830000Y-139690000D02*
X184110000Y-140970000D01*
X180687000Y-139690000D02*
X182830000Y-139690000D01*
X180324000Y-140052000D02*
X180687000Y-139690000D01*
X180324000Y-141988000D02*
X180324000Y-140052000D01*
X183380000Y-145044000D02*
X180324000Y-141988000D01*
X183380000Y-160111000D02*
X183380000Y-145044000D01*
X185550000Y-162280000D02*
X183380000Y-160111000D01*
X186690000Y-162280000D02*
X185550000Y-162280000D01*
X205387000Y-137903000D02*
X205701000Y-137903000D01*
X205110000Y-138180000D02*
X205387000Y-137903000D01*
X204220000Y-138180000D02*
X205110000Y-138180000D01*
D31*
X183415000Y-134085000D02*
X185420000Y-132080000D01*
X174520000Y-134085000D02*
X183415000Y-134085000D01*
X174420000Y-133985000D02*
X174520000Y-134085000D01*
X172720000Y-133985000D02*
X174420000Y-133985000D01*
X170180000Y-128905000D02*
X170180000Y-132080000D01*
X176530000Y-132080000D02*
X170180000Y-132080000D01*
X169625000Y-132080000D02*
X167720000Y-133985000D01*
X170180000Y-132080000D02*
X169625000Y-132080000D01*
X177582000Y-154520000D02*
X180610000Y-154520000D01*
X173162000Y-150100000D02*
X177582000Y-154520000D01*
X170180000Y-150100000D02*
X173162000Y-150100000D01*
X165949000Y-135756000D02*
X167720000Y-133985000D01*
X165949000Y-148851000D02*
X165949000Y-135756000D01*
X167198000Y-150100000D02*
X165949000Y-148851000D01*
X170180000Y-150100000D02*
X167198000Y-150100000D01*
X167721300Y-138429700D02*
X167721000Y-138430000D01*
X170466000Y-135685000D02*
X167721300Y-138429700D01*
X185625000Y-135685000D02*
X170466000Y-135685000D01*
X189230000Y-132080000D02*
X185625000Y-135685000D01*
X167721300Y-138429700D02*
X167721300Y-138430000D01*
D30*
X192220000Y-139386000D02*
X192220000Y-138180000D01*
X189366000Y-142240000D02*
X192220000Y-139386000D01*
X187960000Y-142240000D02*
X189366000Y-142240000D01*
X185550000Y-159740000D02*
X186690000Y-159740000D01*
X184459000Y-158649000D02*
X185550000Y-159740000D01*
X184459000Y-147148000D02*
X184459000Y-158649000D01*
X187960000Y-143646000D02*
X184459000Y-147148000D01*
X187960000Y-142240000D02*
X187960000Y-143646000D01*
X204486000Y-121920000D02*
X205740000Y-121920000D01*
X204486000Y-122632000D02*
X204486000Y-121920000D01*
X202494000Y-124624000D02*
X204486000Y-122632000D01*
X201953000Y-124624000D02*
X202494000Y-124624000D01*
X201110000Y-125466000D02*
X201953000Y-124624000D01*
X201110000Y-126680000D02*
X201110000Y-125466000D01*
X200920000Y-126870000D02*
X201110000Y-126680000D01*
X197555000Y-126870000D02*
X200920000Y-126870000D01*
X197110000Y-126425000D02*
X197555000Y-126870000D01*
X197110000Y-125980000D02*
X197110000Y-126425000D01*
X196220000Y-125980000D02*
X197110000Y-125980000D01*
X200030000Y-125090000D02*
X203200000Y-121920000D01*
X199555000Y-125090000D02*
X200030000Y-125090000D01*
X199110000Y-125535000D02*
X199555000Y-125090000D01*
X199110000Y-125980000D02*
X199110000Y-125535000D01*
X198220000Y-125980000D02*
X199110000Y-125980000D01*
D29*
X199893000Y-120147000D02*
X198120000Y-121920000D01*
X206913000Y-120147000D02*
X199893000Y-120147000D01*
X209760000Y-122995000D02*
X206913000Y-120147000D01*
X209760000Y-161870000D02*
X209760000Y-122995000D01*
X207610000Y-164020000D02*
X209760000Y-161870000D01*
D31*
X185420000Y-121920000D02*
X189230000Y-121920000D01*
X180975000Y-126365000D02*
X170180000Y-126365000D01*
X185420000Y-121920000D02*
X180975000Y-126365000D01*
X180340000Y-121920000D02*
X176530000Y-121920000D01*
X170235000Y-121920000D02*
X176530000Y-121920000D01*
X170180000Y-121975000D02*
X170235000Y-121920000D01*
X170180000Y-123825000D02*
X170180000Y-121975000D01*
D30*
X185550000Y-158460000D02*
X186690000Y-158460000D01*
X184981000Y-157891000D02*
X185550000Y-158460000D01*
X184981000Y-148310000D02*
X184981000Y-157891000D01*
X194220000Y-139070000D02*
X184981000Y-148310000D01*
X194220000Y-138180000D02*
X194220000Y-139070000D01*
X185550000Y-155930000D02*
X186690000Y-155930000D01*
X185550000Y-151741000D02*
X185550000Y-155930000D01*
X198220000Y-139070000D02*
X185550000Y-151741000D01*
X198220000Y-138180000D02*
X198220000Y-139070000D01*
X187830000Y-154650000D02*
X186690000Y-154650000D01*
X187830000Y-151460000D02*
X187830000Y-154650000D01*
X200220000Y-139070000D02*
X187830000Y-151460000D01*
X200220000Y-138180000D02*
X200220000Y-139070000D01*
X202220000Y-142810000D02*
X202220000Y-138180000D01*
X187830000Y-157200000D02*
X202220000Y-142810000D01*
X186690000Y-157200000D02*
X187830000Y-157200000D01*
X204875000Y-128190000D02*
X205643000Y-128190000D01*
X203110000Y-126425000D02*
X204875000Y-128190000D01*
X203110000Y-125980000D02*
X203110000Y-126425000D01*
X202220000Y-125980000D02*
X203110000Y-125980000D01*
D29*
X196220000Y-138180000D02*
X196220000Y-139430300D01*
X196088300Y-139430300D02*
X196220000Y-139430300D01*
X191727100Y-143791500D02*
X196088300Y-139430300D01*
M02*
