G04 #@! TF.FileFunction,Soldermask,Bot*
%FSLAX46Y46*%
G04 Gerber Fmt 4.6, Leading zero omitted, Abs format (unit mm)*
G04 Created by KiCad (PCBNEW (2015-10-22 BZR 6274, Git d63c017)-product) date 25.10.2015 13:12:17*
%MOMM*%
G01*
G04 APERTURE LIST*
%ADD10C,0.150000*%
%ADD11R,1.300000X1.300000*%
%ADD12C,1.300000*%
%ADD13R,1.400000X1.400000*%
%ADD14C,1.400000*%
%ADD15R,1.501140X1.501140*%
%ADD16C,1.501140*%
%ADD17R,1.727200X2.032000*%
%ADD18O,1.727200X2.032000*%
%ADD19O,3.962400X1.981200*%
%ADD20R,1.000000X1.000000*%
%ADD21R,1.500000X0.900000*%
%ADD22R,0.900000X1.500000*%
%ADD23O,3.500120X1.699260*%
%ADD24C,1.998980*%
%ADD25C,2.799080*%
%ADD26R,2.032000X2.032000*%
%ADD27O,2.032000X2.032000*%
G04 APERTURE END LIST*
D10*
D11*
X184785000Y-139700000D03*
D12*
X187285000Y-139700000D03*
D13*
X173990000Y-132715000D03*
D14*
X168990000Y-132715000D03*
D15*
X189786260Y-146050000D03*
D16*
X189786260Y-148590000D03*
X189786260Y-151130000D03*
X179786280Y-151130000D03*
X179786280Y-148590000D03*
X179786280Y-146050000D03*
D17*
X210058000Y-121666000D03*
D18*
X207518000Y-121666000D03*
X204978000Y-121666000D03*
X202438000Y-121666000D03*
D19*
X170180000Y-152400000D03*
X170180000Y-147400000D03*
X170180000Y-137400000D03*
X170180000Y-142400000D03*
D20*
X197935000Y-137545000D03*
X199935000Y-137545000D03*
X201935000Y-137545000D03*
X203935000Y-137545000D03*
X205935000Y-137545000D03*
X207935000Y-137545000D03*
X209935000Y-137545000D03*
X197935000Y-125345000D03*
X199935000Y-125345000D03*
X201935000Y-125345000D03*
X203935000Y-125345000D03*
X205935000Y-125345000D03*
X207935000Y-125345000D03*
X209935000Y-125345000D03*
D21*
X196215000Y-160375000D03*
X196215000Y-159105000D03*
X196215000Y-157835000D03*
X196215000Y-156555000D03*
X196215000Y-155295000D03*
X196215000Y-154025000D03*
X196215000Y-152745000D03*
X196215000Y-151475000D03*
D22*
X207715000Y-149925000D03*
D23*
X171450000Y-125095000D03*
X171450000Y-127635000D03*
X171450000Y-122555000D03*
D24*
X184150000Y-130810000D03*
X184150000Y-120650000D03*
X193040000Y-130810000D03*
X193040000Y-120650000D03*
X180340000Y-120650000D03*
X180340000Y-130810000D03*
X189230000Y-120650000D03*
X189230000Y-130810000D03*
D25*
X166370000Y-156210000D03*
X166370000Y-166370000D03*
X212090000Y-166370000D03*
X212090000Y-146050000D03*
D26*
X194310000Y-139065000D03*
D27*
X194310000Y-141605000D03*
M02*
