M48
;DRILL file {KiCad (2015-10-22 BZR 6274, Git d63c017)-product} date 25.10.2015 14:04:52
;FORMAT={-:-/ absolute / inch / decimal}
FMAT,2
INCH,TZ
T1C0.025
T2C0.031
T3C0.032
T4C0.035
T5C0.039
T6C0.040
T7C0.052
T8C0.055
%
G90
G05
M72
T1
X7.8752Y-5.5774
X8.2652Y-5.4768
T2
X7.275Y-5.5
T3
X7.0782Y-5.75
X7.0782Y-5.85
X7.0782Y-5.95
X7.3734Y-5.5
X7.4719Y-5.75
X7.4719Y-5.85
X7.4719Y-5.95
T4
X6.6531Y-5.225
X6.85Y-5.225
T5
X6.75Y-4.825
X6.75Y-4.925
X6.75Y-5.025
X7.1Y-4.75
X7.1Y-5.15
X7.25Y-4.75
X7.25Y-5.15
X7.45Y-4.75
X7.45Y-5.15
X7.6Y-4.75
X7.6Y-5.15
T6
X7.65Y-5.475
X7.65Y-5.575
X7.97Y-4.79
X8.07Y-4.79
X8.17Y-4.79
X8.27Y-4.79
T7
X6.7Y-5.8594
X6.7Y-6.0563
X6.7Y-6.2531
X6.7Y-6.45
T8
X7.2606Y-5.8366
X7.2606Y-6.0335
X8.3236Y-6.0138
X8.3236Y-6.4075
T0
M30
