G04 #@! TF.FileFunction,Soldermask,Top*
%FSLAX46Y46*%
G04 Gerber Fmt 4.6, Leading zero omitted, Abs format (unit mm)*
G04 Created by KiCad (PCBNEW (2015-10-22 BZR 6274, Git d63c017)-product) date 27.10.2015 2:59:36*
%MOMM*%
G01*
G04 APERTURE LIST*
%ADD10C,0.150000*%
%ADD11R,1.300000X1.300000*%
%ADD12C,1.300000*%
%ADD13R,1.400000X1.400000*%
%ADD14C,1.400000*%
%ADD15R,1.501140X1.501140*%
%ADD16C,1.501140*%
%ADD17R,1.727200X2.032000*%
%ADD18O,1.727200X2.032000*%
%ADD19O,3.500120X1.699260*%
%ADD20C,1.998980*%
%ADD21R,3.657600X2.032000*%
%ADD22R,1.016000X2.032000*%
%ADD23R,2.032000X2.032000*%
%ADD24O,2.032000X2.032000*%
%ADD25C,2.799080*%
%ADD26R,1.300000X1.500000*%
%ADD27R,1.500000X1.300000*%
%ADD28O,3.962400X1.981200*%
G04 APERTURE END LIST*
D10*
D11*
X181610000Y-140970000D03*
D12*
X184110000Y-140970000D03*
D13*
X172720000Y-133985000D03*
D14*
X167720000Y-133985000D03*
D15*
X177721260Y-138430000D03*
D16*
X177721260Y-140970000D03*
X177721260Y-143510000D03*
X167721280Y-143510000D03*
X167721280Y-140970000D03*
X167721280Y-138430000D03*
D17*
X205740000Y-121920000D03*
D18*
X203200000Y-121920000D03*
X200660000Y-121920000D03*
X198120000Y-121920000D03*
D19*
X170180000Y-126365000D03*
X170180000Y-128905000D03*
X170180000Y-123825000D03*
D20*
X180340000Y-132080000D03*
X180340000Y-121920000D03*
X189230000Y-132080000D03*
X189230000Y-121920000D03*
X176530000Y-121920000D03*
X176530000Y-132080000D03*
X185420000Y-121920000D03*
X185420000Y-132080000D03*
D21*
X198120000Y-128778000D03*
D22*
X198120000Y-135382000D03*
X200406000Y-135382000D03*
X195834000Y-135382000D03*
D23*
X187960000Y-139700000D03*
D24*
X187960000Y-142240000D03*
D25*
X180610000Y-149520000D03*
X180610000Y-154520000D03*
X207610000Y-164020000D03*
X207610000Y-154020000D03*
D26*
X207010000Y-130890000D03*
X207010000Y-128190000D03*
D27*
X192960000Y-142240000D03*
X195660000Y-142240000D03*
D28*
X170180000Y-165100000D03*
X170180000Y-160100000D03*
X170180000Y-150100000D03*
X170180000Y-155100000D03*
D27*
X203280000Y-142240000D03*
X200580000Y-142240000D03*
M02*
