G04 #@! TF.FileFunction,Copper,L2,Bot,Mixed*
%FSLAX46Y46*%
G04 Gerber Fmt 4.6, Leading zero omitted, Abs format (unit mm)*
G04 Created by KiCad (PCBNEW (2015-10-22 BZR 6274, Git d63c017)-product) date 26.10.2015 23:38:13*
%MOMM*%
G01*
G04 APERTURE LIST*
%ADD10C,0.150000*%
%ADD11R,1.300000X1.300000*%
%ADD12C,1.300000*%
%ADD13R,1.400000X1.400000*%
%ADD14C,1.400000*%
%ADD15R,1.501140X1.501140*%
%ADD16C,1.501140*%
%ADD17R,1.727200X2.032000*%
%ADD18O,1.727200X2.032000*%
%ADD19R,1.000000X1.000000*%
%ADD20R,1.500000X0.900000*%
%ADD21R,0.900000X1.500000*%
%ADD22O,3.500120X1.699260*%
%ADD23C,1.998980*%
%ADD24R,2.032000X2.032000*%
%ADD25O,2.032000X2.032000*%
%ADD26C,2.799080*%
%ADD27O,3.962400X1.981200*%
%ADD28C,0.889000*%
%ADD29C,0.500000*%
%ADD30C,0.260000*%
%ADD31C,1.000000*%
G04 APERTURE END LIST*
D10*
D11*
X181610000Y-140970000D03*
D12*
X184110000Y-140970000D03*
D13*
X172720000Y-133985000D03*
D14*
X167720000Y-133985000D03*
D15*
X177721260Y-138430000D03*
D16*
X177721260Y-140970000D03*
X177721260Y-143510000D03*
X167721280Y-143510000D03*
X167721280Y-140970000D03*
X167721280Y-138430000D03*
D17*
X205740000Y-121920000D03*
D18*
X203200000Y-121920000D03*
X200660000Y-121920000D03*
X198120000Y-121920000D03*
D19*
X192220000Y-138180000D03*
X194220000Y-138180000D03*
X196220000Y-138180000D03*
X198220000Y-138180000D03*
X200220000Y-138180000D03*
X202220000Y-138180000D03*
X204220000Y-138180000D03*
X192220000Y-125980000D03*
X194220000Y-125980000D03*
X196220000Y-125980000D03*
X198220000Y-125980000D03*
X200220000Y-125980000D03*
X202220000Y-125980000D03*
X204220000Y-125980000D03*
D20*
X186690000Y-162280000D03*
X186690000Y-161010000D03*
X186690000Y-159740000D03*
X186690000Y-158460000D03*
X186690000Y-157200000D03*
X186690000Y-155930000D03*
X186690000Y-154650000D03*
X186690000Y-153380000D03*
D21*
X198190000Y-151830000D03*
D22*
X170180000Y-126365000D03*
X170180000Y-128905000D03*
X170180000Y-123825000D03*
D23*
X180340000Y-132080000D03*
X180340000Y-121920000D03*
X189230000Y-132080000D03*
X189230000Y-121920000D03*
X176530000Y-121920000D03*
X176530000Y-132080000D03*
X185420000Y-121920000D03*
X185420000Y-132080000D03*
D24*
X187960000Y-139700000D03*
D25*
X187960000Y-142240000D03*
D26*
X180610000Y-149520000D03*
X180610000Y-154520000D03*
X207610000Y-164020000D03*
X207610000Y-154020000D03*
D27*
X170180000Y-165100000D03*
X170180000Y-160100000D03*
X170180000Y-150100000D03*
X170180000Y-155100000D03*
D28*
X205700600Y-137902900D03*
X205643100Y-128190000D03*
D29*
X200620000Y-161010000D02*
X186690000Y-161010000D01*
X207610000Y-154020000D02*
X200620000Y-161010000D01*
X197850300Y-124729700D02*
X200660000Y-121920000D01*
X192220000Y-124729700D02*
X197850300Y-124729700D01*
X192220000Y-125980000D02*
X192220000Y-124729700D01*
X183012200Y-142372200D02*
X181610000Y-140970000D01*
X184735800Y-142372200D02*
X183012200Y-142372200D01*
X186193700Y-140914300D02*
X184735800Y-142372200D01*
X186193700Y-139700000D02*
X186193700Y-140914300D01*
X187960000Y-139700000D02*
X186193700Y-139700000D01*
D30*
X186690000Y-162280000D02*
X185549700Y-162280000D01*
X182829600Y-139689600D02*
X184110000Y-140970000D01*
X180687300Y-139689600D02*
X182829600Y-139689600D01*
X180324400Y-140052500D02*
X180687300Y-139689600D01*
X180324400Y-141988000D02*
X180324400Y-140052500D01*
X183380300Y-145043900D02*
X180324400Y-141988000D01*
X183380300Y-160110600D02*
X183380300Y-145043900D01*
X185549700Y-162280000D02*
X183380300Y-160110600D01*
X205387400Y-137902900D02*
X205110300Y-138180000D01*
X205700600Y-137902900D02*
X205387400Y-137902900D01*
X204220000Y-138180000D02*
X205110300Y-138180000D01*
D31*
X174520300Y-134085000D02*
X174420300Y-133985000D01*
X183415000Y-134085000D02*
X174520300Y-134085000D01*
X185420000Y-132080000D02*
X183415000Y-134085000D01*
X172720000Y-133985000D02*
X174420300Y-133985000D01*
X170180000Y-128905000D02*
X170180000Y-130754900D01*
X170180000Y-132080000D02*
X170180000Y-130754900D01*
X176530000Y-132080000D02*
X170180000Y-132080000D01*
X169625000Y-132080000D02*
X167720000Y-133985000D01*
X170180000Y-132080000D02*
X169625000Y-132080000D01*
X165949400Y-135755600D02*
X167720000Y-133985000D01*
X165949400Y-148850900D02*
X165949400Y-135755600D01*
X167198500Y-150100000D02*
X165949400Y-148850900D01*
X177581500Y-154520000D02*
X173161500Y-150100000D01*
X180610000Y-154520000D02*
X177581500Y-154520000D01*
X170180000Y-150100000D02*
X173161500Y-150100000D01*
X170180000Y-150100000D02*
X167198500Y-150100000D01*
D30*
X195329700Y-137734800D02*
X195329700Y-138180000D01*
X194884600Y-137289700D02*
X195329700Y-137734800D01*
X180002500Y-137289700D02*
X194884600Y-137289700D01*
X178862200Y-138430000D02*
X180002500Y-137289700D01*
X177721300Y-138430000D02*
X178862200Y-138430000D01*
X196220000Y-138180000D02*
X195329700Y-138180000D01*
D31*
X185624600Y-135685400D02*
X170465900Y-135685400D01*
X170465900Y-135685400D02*
X167721300Y-138430000D01*
X189230000Y-132080000D02*
X185624600Y-135685400D01*
D30*
X192220000Y-139386300D02*
X192220000Y-138180000D01*
X189366300Y-142240000D02*
X192220000Y-139386300D01*
X187960000Y-142240000D02*
X189366300Y-142240000D01*
X184458700Y-147147600D02*
X187960000Y-143646300D01*
X184458700Y-158649000D02*
X184458700Y-147147600D01*
X185549700Y-159740000D02*
X184458700Y-158649000D01*
X186690000Y-159740000D02*
X185549700Y-159740000D01*
X187960000Y-142240000D02*
X187960000Y-143646300D01*
X197110300Y-126425200D02*
X197110300Y-125980000D01*
X197555400Y-126870300D02*
X197110300Y-126425200D01*
X200920500Y-126870300D02*
X197555400Y-126870300D01*
X201110400Y-126680400D02*
X200920500Y-126870300D01*
X201110400Y-125466300D02*
X201110400Y-126680400D01*
X201952800Y-124623900D02*
X201110400Y-125466300D01*
X202494400Y-124623900D02*
X201952800Y-124623900D01*
X204486100Y-122632200D02*
X202494400Y-124623900D01*
X204486100Y-121920000D02*
X204486100Y-122632200D01*
X205740000Y-121920000D02*
X204486100Y-121920000D01*
X196220000Y-125980000D02*
X197110300Y-125980000D01*
X200030300Y-125089700D02*
X203200000Y-121920000D01*
X199555400Y-125089700D02*
X200030300Y-125089700D01*
X199110300Y-125534800D02*
X199555400Y-125089700D01*
X199110300Y-125980000D02*
X199110300Y-125534800D01*
X198220000Y-125980000D02*
X199110300Y-125980000D01*
D29*
X199893000Y-120147000D02*
X198120000Y-121920000D01*
X206912900Y-120147000D02*
X199893000Y-120147000D01*
X209760500Y-122994600D02*
X206912900Y-120147000D01*
X209760500Y-161869500D02*
X209760500Y-122994600D01*
X207610000Y-164020000D02*
X209760500Y-161869500D01*
D31*
X185420000Y-121920000D02*
X189230000Y-121920000D01*
X180975000Y-126365000D02*
X170180000Y-126365000D01*
X185420000Y-121920000D02*
X180975000Y-126365000D01*
X180340000Y-121920000D02*
X176530000Y-121920000D01*
X170235100Y-121920000D02*
X170180000Y-121975100D01*
X176530000Y-121920000D02*
X170235100Y-121920000D01*
X170180000Y-123825000D02*
X170180000Y-121975100D01*
D30*
X184980600Y-148309700D02*
X194220000Y-139070300D01*
X184980600Y-157890900D02*
X184980600Y-148309700D01*
X185549700Y-158460000D02*
X184980600Y-157890900D01*
X186690000Y-158460000D02*
X185549700Y-158460000D01*
X194220000Y-138180000D02*
X194220000Y-139070300D01*
X185549700Y-151740600D02*
X198220000Y-139070300D01*
X185549700Y-155930000D02*
X185549700Y-151740600D01*
X186690000Y-155930000D02*
X185549700Y-155930000D01*
X198220000Y-138180000D02*
X198220000Y-139070300D01*
X187830300Y-151460000D02*
X200220000Y-139070300D01*
X187830300Y-154650000D02*
X187830300Y-151460000D01*
X186690000Y-154650000D02*
X187830300Y-154650000D01*
X200220000Y-138180000D02*
X200220000Y-139070300D01*
X202220000Y-142810300D02*
X202220000Y-138180000D01*
X187830300Y-157200000D02*
X202220000Y-142810300D01*
X186690000Y-157200000D02*
X187830300Y-157200000D01*
X204875100Y-128190000D02*
X205643100Y-128190000D01*
X203110300Y-126425200D02*
X204875100Y-128190000D01*
X203110300Y-125980000D02*
X203110300Y-126425200D01*
X202220000Y-125980000D02*
X203110300Y-125980000D01*
M02*
