M48
;DRILL file {KiCad (2015-10-22 BZR 6274, Git d63c017)-product} date 27.10.2015 2:54:52
;FORMAT={-:-/ absolute / inch / decimal}
FMAT,2
INCH,TZ
T1C0.025
T2C0.031
T3C0.032
T4C0.035
T5C0.039
T6C0.040
T7C0.052
T8C0.055
%
G90
G05
M72
T1
X7.5483Y-5.6611
X8.0962Y-5.0469
X8.0985Y-5.4293
T2
X7.15Y-5.55
T3
X6.6032Y-5.45
X6.6032Y-5.55
X6.6032Y-5.65
X6.9969Y-5.45
X6.9969Y-5.55
X6.9969Y-5.65
X7.2484Y-5.55
T4
X6.6031Y-5.275
X6.8Y-5.275
T5
X6.7Y-4.875
X6.7Y-4.975
X6.7Y-5.075
X6.95Y-4.8
X6.95Y-5.2
X7.1Y-4.8
X7.1Y-5.2
X7.3Y-4.8
X7.3Y-5.2
X7.45Y-4.8
X7.45Y-5.2
T6
X7.4Y-5.5
X7.4Y-5.6
X7.8Y-4.8
X7.9Y-4.8
X8.Y-4.8
X8.1Y-4.8
T7
X6.7Y-5.9094
X6.7Y-6.1063
X6.7Y-6.3031
X6.7Y-6.5
T8
X7.1106Y-5.8866
X7.1106Y-6.0835
X8.1736Y-6.0638
X8.1736Y-6.4575
T0
M30
