G04 #@! TF.FileFunction,Copper,L1,Top,Mixed*
%FSLAX46Y46*%
G04 Gerber Fmt 4.6, Leading zero omitted, Abs format (unit mm)*
G04 Created by KiCad (PCBNEW (2015-10-22 BZR 6274, Git d63c017)-product) date 27.10.2015 3:27:05*
%MOMM*%
G01*
G04 APERTURE LIST*
%ADD10C,0.150000*%
%ADD11R,1.300000X1.300000*%
%ADD12C,1.300000*%
%ADD13R,1.400000X1.400000*%
%ADD14C,1.400000*%
%ADD15R,1.501140X1.501140*%
%ADD16C,1.501140*%
%ADD17R,1.727200X2.032000*%
%ADD18O,1.727200X2.032000*%
%ADD19O,3.500120X1.699260*%
%ADD20C,1.998980*%
%ADD21R,3.657600X2.032000*%
%ADD22R,1.016000X2.032000*%
%ADD23R,2.032000X2.032000*%
%ADD24O,2.032000X2.032000*%
%ADD25C,2.799080*%
%ADD26R,1.300000X1.500000*%
%ADD27R,1.500000X1.300000*%
%ADD28O,3.962400X1.981200*%
%ADD29C,0.889000*%
%ADD30C,0.500000*%
%ADD31C,0.260000*%
%ADD32C,1.000000*%
G04 APERTURE END LIST*
D10*
D11*
X181610000Y-140970000D03*
D12*
X184110000Y-140970000D03*
D13*
X172720000Y-133985000D03*
D14*
X167720000Y-133985000D03*
D15*
X177721260Y-138430000D03*
D16*
X177721260Y-140970000D03*
X177721260Y-143510000D03*
X167721280Y-143510000D03*
X167721280Y-140970000D03*
X167721280Y-138430000D03*
D17*
X205740000Y-121920000D03*
D18*
X203200000Y-121920000D03*
X200660000Y-121920000D03*
X198120000Y-121920000D03*
D19*
X170180000Y-126365000D03*
X170180000Y-128905000D03*
X170180000Y-123825000D03*
D20*
X180340000Y-132080000D03*
X180340000Y-121920000D03*
X189230000Y-132080000D03*
X189230000Y-121920000D03*
X176530000Y-121920000D03*
X176530000Y-132080000D03*
X185420000Y-121920000D03*
X185420000Y-132080000D03*
D21*
X198120000Y-128778000D03*
D22*
X198120000Y-135382000D03*
X200406000Y-135382000D03*
X195834000Y-135382000D03*
D23*
X187960000Y-139700000D03*
D24*
X187960000Y-142240000D03*
D25*
X180610000Y-149520000D03*
X180610000Y-154520000D03*
X207610000Y-164020000D03*
X207610000Y-154020000D03*
D26*
X207010000Y-130890000D03*
X207010000Y-128190000D03*
D27*
X192960000Y-142240000D03*
X195660000Y-142240000D03*
D28*
X170180000Y-165100000D03*
X170180000Y-160100000D03*
X170180000Y-150100000D03*
X170180000Y-155100000D03*
D27*
X203280000Y-142240000D03*
X200580000Y-142240000D03*
D29*
X205701000Y-137903000D03*
X205643000Y-128190000D03*
X191727100Y-143791500D03*
D30*
X192960000Y-142240000D02*
X192960000Y-140022000D01*
X195834000Y-135382000D02*
X195834000Y-137148000D01*
X189726000Y-139700000D02*
X187960000Y-139700000D01*
X190049000Y-140022000D02*
X189726000Y-139700000D01*
X192960000Y-140022000D02*
X190049000Y-140022000D01*
X192960000Y-140022000D02*
X195834000Y-137148000D01*
X207610000Y-143040000D02*
X201719000Y-137148000D01*
X207610000Y-154020000D02*
X207610000Y-143040000D01*
X201719000Y-137148000D02*
X195834000Y-137148000D01*
X201719000Y-124745000D02*
X201719000Y-137148000D01*
X200660000Y-123686000D02*
X201719000Y-124745000D01*
X200660000Y-121920000D02*
X200660000Y-123686000D01*
X177721000Y-140970000D02*
X177721300Y-140970000D01*
X177721300Y-140970000D02*
X181610000Y-140970000D01*
D31*
X207010000Y-130890000D02*
X205701000Y-130890000D01*
X197880000Y-133736000D02*
X195653000Y-133736000D01*
X198120000Y-133976000D02*
X197880000Y-133736000D01*
X198120000Y-135382000D02*
X198120000Y-133976000D01*
X184110000Y-140567000D02*
X184110000Y-140970000D01*
X190942000Y-133736000D02*
X184110000Y-140567000D01*
X195653000Y-133736000D02*
X190942000Y-133736000D01*
X205701000Y-130890000D02*
X205701000Y-137903000D01*
X204486000Y-129675000D02*
X205701000Y-130890000D01*
X204486000Y-121243000D02*
X204486000Y-129675000D01*
X203511000Y-120268000D02*
X204486000Y-121243000D01*
X197497000Y-120268000D02*
X203511000Y-120268000D01*
X195653000Y-122112000D02*
X197497000Y-120268000D01*
X195653000Y-133736000D02*
X195653000Y-122112000D01*
X200580000Y-142240000D02*
X200580000Y-143280300D01*
X177721300Y-138430000D02*
X177721300Y-139570900D01*
X198963400Y-144896900D02*
X200580000Y-143280300D01*
X177124900Y-144896900D02*
X198963400Y-144896900D01*
X176303900Y-144075900D02*
X177124900Y-144896900D01*
X176303900Y-140417800D02*
X176303900Y-144075900D01*
X177150800Y-139570900D02*
X176303900Y-140417800D01*
X177721300Y-139570900D02*
X177150800Y-139570900D01*
D32*
X168910000Y-143510000D02*
X167721300Y-143510000D01*
X180340000Y-132080000D02*
X168910000Y-143510000D01*
X167721300Y-143510000D02*
X167721000Y-143510000D01*
D30*
X198120000Y-123686000D02*
X198120000Y-121920000D01*
X200699000Y-126266000D02*
X198120000Y-123686000D01*
X200699000Y-133322000D02*
X200699000Y-126266000D01*
X200406000Y-133616000D02*
X200699000Y-133322000D01*
X200406000Y-135382000D02*
X200406000Y-133616000D01*
D32*
X167198000Y-165100000D02*
X170180000Y-165100000D01*
X165962000Y-163864000D02*
X167198000Y-165100000D01*
X165962000Y-127833000D02*
X165962000Y-163864000D01*
X167430000Y-126365000D02*
X165962000Y-127833000D01*
X170180000Y-126365000D02*
X167430000Y-126365000D01*
X173162000Y-160100000D02*
X170180000Y-160100000D01*
X173162000Y-155100000D02*
X173162000Y-160100000D01*
X175030000Y-155100000D02*
X173162000Y-155100000D01*
X180610000Y-149520000D02*
X175030000Y-155100000D01*
X173162000Y-155100000D02*
X170180000Y-155100000D01*
D31*
X207010000Y-128190000D02*
X205643000Y-128190000D01*
D30*
X195660000Y-142240000D02*
X195660000Y-142202500D01*
X194071000Y-143791500D02*
X191727100Y-143791500D01*
X195660000Y-142202500D02*
X194071000Y-143791500D01*
X197022800Y-140839700D02*
X195660000Y-142202500D01*
X203280000Y-140839700D02*
X197022800Y-140839700D01*
X203280000Y-142240000D02*
X203280000Y-140839700D01*
M02*
